<svg width="372" height="428" viewBox="0 0 372 428" fill="none" xmlns="http://www.w3.org/2000/svg">
<path d="M85.0817 90.2144L111.43 140.29C117.619 150.358 103.014 161.522 95.429 148.659L66.2901 100.163C57.7321 83.3177 77.6486 76.5918 85.0817 90.2144Z" fill="#FFD2A1"/>
<path d="M111.429 140.29L151.466 188.999L145.632 195.64C132.646 186.764 101.276 157.985 96.5248 150.291C90.5584 141.401 104.29 130.342 111.429 140.29Z" fill="#FFD2A1"/>
<path d="M73.5241 288.672C72.0289 294.387 70.4056 300.002 68.6684 305.446C68.2175 306.694 67.7048 307.862 67.0782 308.854L67.0687 308.925C65.0372 312.324 62.0469 314.507 58.9095 315.485C54.8939 316.819 50.5651 316.245 47.2899 313.942C43.7158 311.659 41.3948 307.387 41.9738 301.431L42.0593 300.557C41.1194 296.836 40.4123 292.64 39.9946 288.055C37.4552 263.264 41.7745 227.679 46.1318 199.94L84.18 206.932C84.65 232.155 80.6012 261.431 73.5241 288.672Z" fill="#FFD2A1"/>
<path d="M24.8062 394.942C17.3826 409.656 23.0405 412.466 22.3902 424.741L27.9769 425.073L28.4753 415.414L32.8848 422.159C34.2898 424.281 36.6156 425.581 39.155 425.733L63.4763 427.176C69.3715 424.826 57.7519 421.736 50.6416 416.287C50.6416 416.287 39.2736 402.869 39.3258 395.801C39.3258 394.795 39.3828 393.623 39.4777 392.336L25.3758 391.539C25.2998 393.091 25.1337 394.301 24.8062 394.942Z" fill="#FFD2A1"/>
<path d="M44.741 297.652C44.741 297.652 43.6065 298.996 41.9737 301.431C40.2175 304.141 37.773 308.199 35.3285 313.444C33.4964 317.398 31.612 322.002 30.1406 327.204C25.8735 341.847 27.4303 379.867 25.3418 391.966L39.2397 394.477C42.7664 376.549 57.979 333.826 64.2729 316.472C66.0292 311.764 67.0686 308.925 67.0686 308.925L67.0781 308.854C71.6917 290.993 56.8826 290.713 44.741 297.652Z" fill="#FFD2A1"/>
<path d="M24.8232 394.942C24.8849 394.814 25.3311 394.876 25.9672 395.042C29.3372 395.915 32.076 398.365 33.443 401.568L36.9506 409.799C38.4695 413.368 41.9251 415.727 45.8077 415.846L50.3834 415.988L50.6159 416.264C57.7357 421.703 69.3553 424.812 63.4649 427.19L39.1673 425.752C36.6185 425.6 34.2879 424.257 32.8782 422.126L28.4496 415.433L27.956 425.088L22.412 424.76C23.0291 412.462 17.3901 409.661 24.8232 394.942Z" fill="#A63F43"/>
<path d="M67.0782 308.854C67.9136 305.627 68.113 302.973 67.8092 300.833C68.5829 300.776 69.3661 300.719 70.154 300.662C69.6698 302.271 69.1715 303.866 68.6684 305.446C68.2174 306.695 67.7048 307.862 67.0782 308.854ZM41.9738 301.431L42.0592 300.586C42.2016 300.614 42.3489 300.638 42.496 300.662C42.3299 300.904 42.1542 301.16 41.9738 301.431ZM40.4074 291.767C40.2603 290.661 40.1321 289.531 40.0229 288.373C40.1559 289.579 40.2793 290.713 40.4074 291.767Z" fill="#E8C093"/>
<path d="M64.2725 316.472C62.5116 315.998 60.7268 315.67 58.9089 315.485C55.0595 314.707 51.1626 314.208 47.2894 313.943C43.3735 313.587 39.4861 313.444 35.575 313.444C35.4943 313.444 35.4136 313.444 35.3281 313.444C37.7726 308.199 40.2171 304.141 41.9733 301.431C42.1537 301.16 42.3293 300.904 42.4954 300.662C45.7136 301.184 49.5346 301.397 53.7732 301.397C58.0831 301.397 62.8248 301.179 67.8087 300.833C68.1124 302.973 67.9131 305.627 67.0777 308.854L67.0682 308.925C67.0682 308.925 66.0287 311.764 64.2725 316.472Z" fill="#E8C093"/>
<path d="M128.342 281.889C129.904 287.585 131.304 293.262 132.519 298.848C132.757 300.154 132.894 301.416 132.847 302.589L132.875 302.66C132.814 306.614 131.318 310.003 129.088 312.419C126.278 315.58 122.238 317.246 118.251 316.89C114.017 316.695 109.874 314.161 107.396 308.712L107.035 307.914C104.358 305.161 101.643 301.877 98.9944 298.113C84.3988 277.911 70.3538 244.932 60.2627 218.727L96.7114 205.764C109.726 227.38 120.852 254.758 128.342 281.889Z" fill="#FFD2A1"/>
<path d="M187.223 413.378L164.273 421.542C161.876 422.396 159.223 422.102 157.101 420.697L150.413 416.207L153.722 425.296L148.443 427.171C144.257 415.618 137.949 415.238 139.045 398.792C139.472 392.388 114.112 353.633 110.03 336.949C108.705 331.709 108.031 326.777 107.647 322.439C107.139 316.672 107.229 311.935 107.395 308.712C107.59 305.783 107.898 304.055 107.898 304.055C114.947 291.975 127.915 284.818 132.846 302.589L132.875 302.66C132.875 302.66 133.392 305.641 134.228 310.591C137.674 330.047 146.811 379.824 152.748 393.922C155.454 400.443 171.16 408.365 171.16 408.365C179.832 410.606 191.737 408.921 187.223 413.378Z" fill="#FFD2A1"/>
<path d="M139.059 398.782C139.068 398.644 139.505 398.526 140.15 398.431C143.596 397.918 147.075 399.105 149.582 401.521L156.023 407.734C158.818 410.425 162.919 411.251 166.536 409.846L170.803 408.185L171.126 408.351C179.808 410.582 191.717 408.911 187.222 413.397L164.286 421.556C161.88 422.41 159.212 422.083 157.086 420.673L150.393 416.235L153.706 425.32L148.476 427.176C144.242 415.618 137.962 415.238 139.059 398.782Z" fill="#A63F43"/>
<path d="M107.396 308.712L107.035 307.914C104.358 305.161 101.643 301.877 98.9941 298.113C99.0321 298.089 99.0701 298.065 99.1081 298.037C104.016 297.61 108.782 297.249 113.234 297.04C111.269 299 109.441 301.411 107.899 304.055C107.899 304.055 107.59 305.783 107.396 308.712ZM132.847 302.589C132.286 300.562 131.617 298.858 130.867 297.448C131.347 297.519 131.812 297.595 132.263 297.681C132.353 298.07 132.438 298.459 132.519 298.848C132.723 299.992 132.856 301.098 132.856 302.147C132.856 302.294 132.851 302.441 132.847 302.589Z" fill="#E8C093"/>
<path d="M107.646 322.439C107.361 319.197 107.261 316.278 107.261 313.772C107.261 311.821 107.318 310.122 107.394 308.712C107.589 305.783 107.897 304.055 107.897 304.055C109.44 301.412 111.267 299 113.232 297.04C115.867 296.917 118.387 296.845 120.765 296.845C124.543 296.845 127.956 297.021 130.866 297.448C131.616 298.858 132.285 300.562 132.845 302.589L132.874 302.66C132.874 302.66 133.391 305.641 134.226 310.591C132.465 311.061 130.752 311.669 129.086 312.419C125.365 313.667 121.738 315.186 118.249 316.89C114.604 318.57 111.101 320.436 107.646 322.439Z" fill="#E8C093"/>
<path d="M109.365 21.8545C111.202 16.2109 108.624 9.76983 104.134 5.89665C99.6392 2.02348 93.5826 0.390683 87.6589 0.0394385C76.3384 -0.63457 35.9786 6.89821 56.365 57.2543C59.2746 64.4453 57.4234 67.0844 57.4946 70.8484C57.6892 81.5281 60.9406 77.859 60.091 81.5281C65.7631 75.1202 76.3289 53.9886 81.6925 47.3197C87.0561 40.6508 93.5826 34.5136 101.699 31.8033C104.818 28.9317 108.05 25.8796 109.365 21.8545Z" fill="#21201D"/>
<path d="M64.1357 66.287L85.7705 81.8129L88.7133 67.8676L90.9347 57.3587L91.8983 52.8116L72.0672 35.1402L64.1357 66.287Z" fill="#FFD2A1"/>
<path d="M85.6613 73.5539C92.7621 102.313 106.684 101.34 108.312 117.569C109.494 129.354 97.1384 133.882 97.1384 133.882C93.5643 150.457 90.8777 165.077 91.8935 176.179C91.8935 176.179 56.3561 169.534 53.9401 168.926C59.8306 152.161 49.5068 134.034 49.5068 103.524C49.5068 87.0578 64.6104 64.4216 64.6104 64.4216C64.6104 64.4216 84.5221 68.9403 85.6613 73.5539Z" fill="#FFD2A1"/>
<path d="M109.119 117.607C109.19 118.333 109.19 119.059 109.119 119.714C108.682 129.895 97.1193 133.897 97.1193 133.897C97.0481 137.969 96.7538 141.895 96.4643 145.678V145.749C96.0276 150.405 95.4485 154.767 94.8647 158.84C94.1384 163.857 93.4835 168.509 93.0468 172.728C92.9756 173.383 92.8996 174.038 92.8284 174.617C92.8284 174.617 91.8839 174.475 90.2843 174.257C86.5772 173.749 79.3008 172.728 72.2474 171.712C70.2112 171.418 68.2508 171.129 66.3569 170.91C60.0298 169.966 54.7944 169.163 53.9257 168.945C54.3624 167.711 54.7232 166.548 54.8703 165.309L54.9416 165.238C55.6678 162.039 55.8149 158.764 55.6678 155.346C55.6678 154.402 55.5966 153.528 55.5254 152.584C55.0887 147.638 54.0682 142.331 53.0524 136.512C52.2503 132.297 51.4528 127.859 50.869 122.989C50.5035 120.44 50.2139 117.896 49.9956 115.134C49.8532 113.9 49.7773 112.661 49.7061 111.351C49.559 108.807 49.4878 106.262 49.4878 103.571C49.4878 87.0626 60.2482 71.793 60.2482 71.793C60.2482 71.793 63.5944 73.1031 67.0879 74.4083C70.4295 75.576 73.192 78.0489 74.8675 81.101L75.0859 81.3905L80.9004 92.5923C82.723 96.081 86.2117 98.4068 90.213 98.7723L98.7189 99.4986C103.807 105.318 108.245 109.101 109.119 117.607Z" fill="#A4CB39"/>
<path d="M132.899 297.804C122.883 295.725 105.222 297.425 87.4315 299.124C69.8218 300.804 52.0887 302.484 41.5609 300.496C41.5609 300.496 38.3618 280.133 38.2146 258.394C38.1435 244.719 39.2351 230.47 43.1605 220.36C40.1797 211.925 38.2905 196.798 46.7963 178.253C48.6854 173.962 51.3767 169.676 54.8702 165.309L54.9415 165.238L69.0482 168.077L72.029 168.656L90.3553 172.22L93.0467 172.728L93.265 172.799C93.265 173.094 98.2109 188.871 104.609 210.762C113.628 241.449 132.899 273.953 132.899 297.804Z" fill="#A4CB39"/>
<path d="M88.7126 67.8675C86.2776 66.8945 84.118 65.0385 82.3618 63.0355C78.2845 58.4219 75.4744 52.6928 74.3115 46.641C77.9664 51.117 83.05 54.2592 88.4136 56.4188C89.249 56.7558 90.0938 57.0691 90.9339 57.3586L88.7126 67.8675Z" fill="#E8C093"/>
<path d="M107.794 40.2712C105.724 37.0151 104.642 35.1497 104.243 32.5438C115.474 -3.01729 39.9135 1.06001 63.8029 42.2885H71.0508C73.7137 51.8432 79.2481 58.028 90.5354 61.2082C94.4656 61.3648 98.0634 61.9439 100.959 59.5089C102.971 57.2116 104.096 53.1628 104.542 47.1964C104.633 46.0002 105.373 44.9466 106.469 44.4577L106.512 44.4387C107.761 43.8881 109.061 42.4024 107.794 40.2712Z" fill="#FFD2A1"/>
<path d="M71.2701 44.1396C71.1087 47.8277 68.612 51.3069 65.1755 52.6549C62.8449 48.7295 60.5049 44.7851 58.8057 40.5512C57.1112 36.3126 56.0669 31.7369 56.4419 27.1898C57.0352 19.9845 61.3071 13.2824 67.3114 9.25257C73.3158 5.2275 80.8961 3.79877 88.0539 4.83826C95.2117 5.87301 101.928 9.27157 107.387 14.0134C104.04 14.3124 101.093 16.4008 98.838 18.8928C96.5834 21.3847 94.87 24.3086 92.81 26.9666C90.7547 29.6247 88.2295 32.0929 85.0398 33.1419C81.6935 35.0595 77.004 33.7779 74.0421 36.2414C71.835 38.0783 71.4742 41.2727 71.2701 44.1396Z" fill="#21201D"/>
<path d="M105.225 212.779C105.216 212.76 105.206 212.737 105.197 212.718C104.998 212.063 104.798 211.412 104.608 210.762C104.343 209.846 104.077 208.944 103.816 208.052C104.29 209.637 104.76 211.218 105.225 212.779ZM93.3971 173.307C93.3212 173.046 93.2785 172.885 93.269 172.823C93.2832 172.894 93.3259 173.06 93.3971 173.307ZM93.2642 172.799L93.0459 172.728C93.0459 172.723 93.0459 172.719 93.0459 172.714L93.2595 172.785C93.2595 172.79 93.2595 172.794 93.2642 172.799Z" fill="#E8E8E8"/>
<path d="M93.0462 172.728L90.3548 172.22H90.3501C90.3501 172.216 90.3501 172.206 90.3501 172.201C90.4972 158.242 91.8073 144.277 90.4973 130.389C97.8402 129.516 104.68 125.519 109.113 119.7C108.677 129.881 97.1139 133.878 97.1139 133.878C97.0427 137.95 96.7532 141.88 96.459 145.659V145.735C96.0223 150.386 95.4431 154.748 94.8593 158.826C94.1331 163.843 93.4781 168.494 93.0415 172.714H93.0462C93.0462 172.719 93.0462 172.724 93.0462 172.728Z" fill="#8FBF0C"/>
<path d="M105.197 212.718C100.674 202.698 90.6442 191.23 90.35 180.204C90.2788 178.239 90.2788 176.202 90.2788 174.237C90.2788 173.592 90.2788 172.87 90.35 172.22H90.3547L93.0461 172.728L93.2644 172.799C93.2644 172.809 93.2644 172.813 93.2692 172.823C93.2786 172.885 93.3214 173.046 93.3973 173.307C94.2707 176.378 99.1454 192.417 103.816 208.052C104.077 208.944 104.343 209.846 104.609 210.762C104.798 211.412 104.998 212.063 105.197 212.718Z" fill="#8FBF0C"/>
<path d="M69.0489 168.077L54.9422 165.238C55.507 162.765 55.7206 160.245 55.7206 157.648C55.7206 156.889 55.7017 156.12 55.6684 155.346C55.6684 154.402 55.5972 153.528 55.526 152.584C55.0893 147.638 54.0688 142.331 53.0531 136.512C52.2509 132.297 51.4535 127.859 50.8696 122.989C56.181 112.589 63.3055 103.134 72.5423 96.1522C68.6881 108.151 64.8339 120.298 63.5239 132.876C62.285 144.875 63.5239 157.383 69.0489 168.077Z" fill="#8FBF0C"/>
<path d="M38.2153 258.394C38.2153 257.966 38.2153 257.539 38.2153 257.107C38.2153 243.836 39.3592 230.152 43.1612 220.36C41.7894 216.472 40.6455 211.161 40.6455 204.753C40.6455 197.253 42.2118 188.249 46.797 178.253C48.6861 173.962 51.3774 169.676 54.8709 165.309L54.9421 165.238L69.0488 168.076C69.2672 168.584 69.5567 169.163 69.851 169.676C68.6121 169.966 67.4492 170.402 66.3575 170.91C59.5984 174.038 54.8709 180.802 52.3979 187.998C49.5595 196.29 49.27 205.232 48.1783 213.961C46.7971 224.503 44.1817 234.761 41.6328 245.013C40.4699 249.446 39.3782 253.956 38.2153 258.394Z" fill="#8FBF0C"/>
<path d="M72.0337 103.353L41.7697 151.165C36.1309 161.555 19.1714 154.459 26.5381 141.472L54.0395 92.0275C64.3727 76.212 80.136 90.1193 72.0337 103.353Z" fill="#FFD2A1"/>
<path d="M41.7698 151.165L19.518 210.159C19.518 210.159 10.8223 208.854 10.8556 208.417C12.0659 192.735 21.3691 151.193 25.6695 143.238C30.3971 133.631 46.8344 140.02 41.7698 151.165Z" fill="#FFD2A1"/>
<path d="M20.5762 206.471L19.3231 222.144L13.3282 230.18L2.7624 229.52L0 223.302C1.21037 221.565 2.78149 221.826 3.69757 223.753L8.11652 218.646C6.24163 215.324 8.87595 209.789 11.3109 204.051L20.5762 206.471Z" fill="#FFD2A1"/>
<path d="M52.5735 91.752L36.0981 119.633C40.1992 123.967 49.6211 127.925 55.7441 130.346L72.115 103.571C81.3185 89.2506 63.3434 74.5933 52.5735 91.752Z" fill="#EDEDED"/>
<path d="M138.798 190.48L144.408 195.474L145.509 200.386C145.623 201.915 147.702 207.335 148.618 208.977C150.337 212.419 153.617 213.624 157.324 214.227L160.043 214.564L161.985 213.966C161.985 213.966 163.28 204.544 162.844 204.16L156.412 193.826L146.834 184.49L140.227 189.417L138.798 190.48Z" fill="#FFD2A1"/>
<path d="M148.306 208.36C147.281 206.315 146.251 203.827 145.709 201.411C146.203 203.32 147.48 206.647 148.306 208.36Z" fill="#E8E8E8"/>
<path d="M160.618 213.596C160.618 213.596 153.104 208.204 149.924 208.204C149.273 208.204 148.804 208.432 148.618 208.978C148.514 208.778 148.41 208.569 148.305 208.36C147.479 206.647 146.202 203.32 145.709 201.411C145.633 201.07 145.566 200.723 145.509 200.386L144.408 195.474L138.798 190.48L145.68 193.323L158.088 200.472L160.547 206.044L160.556 207.221L158.425 205.166L156.507 208.337L160.603 212.281L160.618 213.596Z" fill="#E8C093"/>
<path d="M316.001 361.821L317.923 358.65L158.425 205.166L156.507 208.337L316.001 361.821Z" fill="#F1813C"/>
<path d="M146.46 205.569C145.406 205.489 144.366 205.389 143.313 205.422C139.216 205.498 135.229 207.216 132.377 210.145C131.627 210.914 130.962 211.749 130.293 212.585C129.443 213.638 128.57 214.73 127.535 215.722L127.008 216.216C126.192 216.975 125.413 217.692 125.333 218.371C125.276 218.869 125.646 219.505 126.22 219.894C126.852 220.322 127.749 220.568 128.969 220.644C130.117 220.716 131.062 220.621 131.85 220.331C132.576 220.056 133.279 219.576 133.867 219.14C135.68 217.787 137.289 216.197 138.993 214.517C140.213 213.306 141.438 212.101 142.734 210.976C145.653 208.46 150.404 206.595 154.633 206.205L146.46 205.569ZM128.731 224.347C126.837 224.228 125.333 223.772 124.137 222.961C122.404 221.784 121.431 219.814 121.654 217.929C121.901 215.903 123.334 214.569 124.483 213.501L124.972 213.045C125.831 212.224 126.591 211.27 127.397 210.264C128.147 209.338 128.893 208.413 129.719 207.558C133.255 203.937 138.182 201.805 143.241 201.715C144.4 201.691 145.577 201.782 146.749 201.877L156.105 202.603L155.829 206.139L156.532 206.134L156.456 209.841C152.682 209.708 147.812 211.498 145.154 213.786C143.92 214.854 142.762 215.997 141.599 217.151C139.881 218.85 138.101 220.606 136.079 222.116C135.277 222.709 134.304 223.374 133.136 223.806C132.101 224.19 130.962 224.375 129.671 224.375L128.731 224.347Z" fill="#1D1D1B"/>
<path d="M154.277 195.312L157.96 199.85L159.408 207.088L159.247 213.012C159.047 214.165 155.454 215.68 155.336 207.909L152.701 204.435C151.339 203.88 150.081 202.949 148.885 201.796C147.428 200.391 146.44 198.559 146.018 196.575L145.624 192.759L154.277 195.312Z" fill="#FFD2A1"/>
<path d="M257.315 416.515C256.086 415.338 254.837 414.123 254.125 412.547C253.409 410.976 253.309 408.945 254.329 407.312C255.288 405.783 257.173 404.578 257.206 402.874C257.22 402.214 256.93 401.63 256.622 401.089C254.614 397.529 251.624 394.629 250.015 390.837C248.406 387.044 248.648 381.714 252.184 378.78C253.698 377.527 255.573 376.905 257.4 376.417C259.247 375.918 261.131 375.519 262.973 375.572C266.4 375.662 269.452 377.314 271.773 379.582C274.099 381.851 275.77 384.713 277.322 387.609C278.665 390.125 279.956 392.768 280.108 395.749C280.26 398.73 279.026 402.143 276.382 403.918C275.433 404.559 274.364 404.953 273.311 405.318C270.501 406.296 267.634 407.16 265.019 408.693C263.865 409.367 262.603 410.53 262.873 411.731C262.982 412.215 263.329 412.576 263.661 412.917C264.587 413.862 265.507 414.807 266.433 415.756C267.734 417.08 269.048 418.423 270.695 419.316C272.39 420.237 274.403 420.654 275.893 421.86C277.383 423.065 278.124 425.538 276.705 427.19C268.811 427.015 262.712 421.684 257.315 416.515Z" fill="#CBA39C"/>
<path d="M361.482 357.449L360.651 357.962C358.473 358.565 356.199 358.774 353.954 358.579C353.489 358.541 352.929 358.394 352.815 357.919C355.791 355.01 357.6 350.951 360.59 348.056C360.922 347.733 361.311 347.41 361.762 347.425C361.857 350.572 361.8 353.728 361.601 356.875L361.482 357.449Z" fill="#2E2E2D"/>
<path d="M346.331 403.092C345.914 404.891 345.491 406.69 345.069 408.489C344.85 409.443 344.191 410.611 343.659 411.408C343.014 412.362 342.026 412.951 341.063 413.52C338.442 415.058 335.637 416.643 332.647 416.492L331.669 416.192C331.157 415.742 331.266 414.892 331.479 414.227C332.177 412.049 333.777 410.905 335.566 409.604C337.009 408.56 338.765 406.51 338.305 404.725C338.001 403.533 336.729 402.997 335.614 402.627C334.56 402.276 333.506 401.924 332.452 401.578C329.638 400.643 326.818 399.708 324.004 398.768L323.192 398.497C326.481 395.735 329.775 392.977 333.065 390.215L334 389.693L335.144 390.063L335.723 390.414C337.939 391.762 340.09 393.248 342.145 394.862C342.748 395.331 343.341 395.811 343.925 396.304C344.77 397.012 345.624 397.781 346.042 398.834C346.588 400.23 346.673 401.63 346.331 403.092Z" fill="#F7D6D0"/>
<path d="M248.6 387.737C248.709 388.629 248.894 389.484 249.265 390.262L249.82 391.297L250.636 392.151C251.23 392.669 251.97 393.077 252.677 393.409L252.824 393.485C260.314 397.083 268.915 396.267 276.999 397.823L277.924 398.009C278.589 398.156 279.22 398.303 279.851 398.493C280.891 398.749 281.925 399.048 282.965 399.304C284.56 399.713 286.155 400.083 287.783 400.235C289.828 400.41 291.898 400.273 293.967 400.13C295.766 400.007 297.561 399.888 299.35 399.974C301.429 400.083 303.503 400.529 305.582 400.79C307.063 401.013 308.549 401.122 310.03 401.051C310.319 401.027 310.746 401.032 311.288 401.037C312.664 401.051 314.795 401.065 317.406 400.643C319.371 400.344 321.597 399.788 324.008 398.787C325.897 397.971 327.9 396.898 329.937 395.45C332.016 393.969 333.905 392.222 335.723 390.409L335.794 390.333C339.392 386.74 343.213 383.475 347.29 380.584C349.032 379.321 350.921 378.101 352.962 377.802C353.408 377.764 353.888 377.731 354.372 377.765C353.033 374.356 351.776 370.906 350.442 367.498C349.772 365.68 349.103 363.9 348.401 362.082L347.917 361.118L347.328 360.639C346.844 360.454 346.327 360.639 345.842 360.862C345.026 361.232 344.21 361.64 343.398 362.011C340.094 363.568 336.686 365.049 333.312 364.014L332.348 363.639C331.271 363.121 330.198 362.49 329.125 362.082C328.717 361.897 328.271 361.75 327.825 361.674C326.23 361.379 324.635 361.75 323.007 361.75C318.298 361.788 314.145 358.527 309.584 357.188C304.619 355.669 299.279 356.524 294.124 357.34C290.564 357.895 287.004 358.489 283.411 359.082C275.29 360.378 266.95 361.788 259.944 366.273C259.275 366.681 258.644 367.128 258.012 367.607C257.495 368.015 256.94 368.461 256.422 368.941L256.047 369.311C255.53 369.757 255.051 370.279 254.604 370.797C254.158 371.243 253.75 371.722 253.38 372.206C252.934 372.762 252.525 373.317 252.155 373.91C251.6 374.727 251.12 375.614 250.674 376.507L250.266 377.323C248.785 380.584 248.116 384.144 248.6 387.737Z" fill="#F7D6D0"/>
<path d="M371.393 374.494L370.837 375.515L370.519 376.003C369.394 377.726 368.032 379.426 366.133 379.872C365.184 380.1 364.197 379.986 363.233 379.858C359.949 379.412 356.678 378.771 353.46 377.95L352.967 377.821H352.962C350.859 377.261 348.766 376.587 346.905 375.443L346.402 375.125C344.271 373.687 342.491 371.47 342.021 368.836C341.874 368.034 341.86 367.222 341.95 366.411C342.111 364.868 342.657 363.359 343.412 362.011L343.516 361.816C344.736 359.728 346.421 358 348.116 356.32C348.514 355.916 348.927 355.517 349.378 355.171C349.976 354.72 350.646 354.373 351.358 354.155C351.837 353.999 352.34 353.904 352.848 353.875L353.114 353.861C353.726 353.851 354.338 353.937 354.941 354.032L355.145 354.065L355.857 354.188C356.332 354.288 356.807 354.383 357.281 354.497L358.083 354.71C359.322 355.066 360.533 355.532 361.639 356.187C362.089 356.448 362.517 356.742 362.93 357.074C363.812 357.782 364.586 358.645 365.198 359.628C366.646 361.958 367.107 364.863 368.535 367.218C369.242 368.376 370.163 369.373 370.833 370.554C371.065 370.972 371.265 371.428 371.402 371.902V371.907C371.658 372.766 371.706 373.673 371.393 374.494Z" fill="#F7D6D0"/>
<path d="M201.33 311.773C202.07 313.074 203.333 313.961 204.704 314.555C205.184 314.778 205.706 315.001 206.223 315.148C208.112 315.741 210.153 316.112 211.895 317.113C214.084 318.409 215.64 320.635 216.789 322.932C220.42 330.313 220.349 338.876 223.316 346.513C223.795 347.738 224.35 348.924 224.982 350.111C227.464 354.853 230.986 359.082 234.508 363.159C236.511 365.385 238.552 367.645 241.034 369.24C242.259 370.018 243.555 370.611 244.779 371.352C247.044 372.686 248.933 374.466 250.675 376.507C251.415 377.432 252.156 378.396 252.825 379.397L252.934 379.544C253.641 380.622 254.306 381.661 254.899 382.772C255.459 383.736 255.938 384.699 256.456 385.625C257.049 384.775 257.348 383.774 257.419 382.696C257.571 381.362 257.419 379.915 257.239 378.581C257.125 377.84 257.049 377.138 256.978 376.431C256.831 375.282 256.679 374.171 256.532 373.023C256.423 372.353 256.347 371.651 256.271 370.982C256.2 370.426 256.086 369.871 256.048 369.311L256.014 369.164C255.606 368.276 254.899 367.607 254.121 367.014C253.01 366.235 251.638 365.718 250.414 365.162C244.371 362.528 239.031 358.228 235.03 352.855C233.288 350.553 231.802 348.032 230.616 345.403C228.466 340.509 227.317 335.24 225.76 330.161C225.537 329.421 225.281 328.68 225.02 327.94V327.902C223.501 323.564 221.498 319.373 218.308 316.074C215.085 312.775 210.785 310.625 206.332 310.069C204.443 309.846 202.217 310.107 201.33 311.773Z" fill="#F7D6D0"/>
<path d="M358.231 350.814C358.203 352.114 358.155 353.415 358.084 354.71L358.032 355.551L357.918 356.125L357.087 356.642C355.886 356.97 354.667 357.179 353.437 357.274C352.545 357.34 351.648 357.34 350.751 357.278L350.39 357.255C349.92 357.217 349.36 357.074 349.246 356.595C350.015 355.84 350.703 355.019 351.358 354.155C352.891 352.124 354.22 349.893 355.872 347.966C356.238 347.538 356.617 347.121 357.021 346.732C357.353 346.414 357.742 346.091 358.193 346.1C358.241 347.671 358.255 349.242 358.231 350.814Z" fill="#F7D6D0"/>
<path d="M366.67 366.411C366.674 366.871 366.584 367.331 366.432 367.759L366.347 367.987L366.261 368.119L366.043 368.105C365.535 367.882 365.117 367.479 364.709 367.085L364.581 366.895L364.595 366.705C364.761 366.05 365.084 365.442 365.53 364.939L366.029 364.726L366.209 364.882L366.404 365.224L366.67 366.411Z" fill="#EDEDED"/>
<path d="M366.67 366.411C366.675 366.871 366.584 367.331 366.433 367.759L366.176 367.854L365.877 367.398L365.801 366.15L366.029 365.428L366.404 365.224L366.67 366.411Z" fill="#46403D"/>
<path d="M357.662 349.124C357.747 348.512 357.838 347.895 357.814 347.273C356.219 350.121 355.032 353.225 354.306 356.448C354.961 356.025 355.616 355.603 356.276 355.18L357.249 354.578L357.368 354.112C357.61 352.418 357.415 350.818 357.662 349.124Z" fill="#2E2E2D"/>
<path d="M371.393 374.494L370.838 375.515L370.52 376.004L370.549 375.576C370.596 375.064 370.719 374.551 370.924 374.081L371.042 373.236L370.667 372.914L369.979 372.524L369.704 372.23L370.15 371.879L370.795 372.045L371.403 371.907C371.659 372.766 371.707 373.673 371.393 374.494Z" fill="#2E2E2D"/>
<path d="M304.974 408.869L305.017 408.142C305.155 405.684 305.34 403.234 305.568 400.79C305.43 400.771 305.292 400.752 305.155 400.733C305.297 400.752 305.439 400.771 305.582 400.79C306.754 400.966 307.927 401.07 309.099 401.07C309.412 401.07 309.721 401.065 310.029 401.051C310.186 401.037 310.385 401.032 310.618 401.032C310.812 401.032 311.035 401.037 311.287 401.037C311.534 401.042 311.805 401.042 312.099 401.042C313.442 401.042 315.265 400.989 317.405 400.643C318.44 400.486 319.541 400.258 320.704 399.931C319.546 400.263 318.44 400.496 317.415 400.657C317.163 401.16 316.926 401.668 316.703 402.185C315.858 404.113 315.103 406.087 314.453 408.104L313.765 408.204C310.85 408.617 307.912 408.755 304.974 408.869ZM303.498 400.486C302.117 400.273 300.736 400.064 299.35 399.988C298.889 399.964 298.429 399.955 297.968 399.955C296.63 399.955 295.291 400.045 293.953 400.135C292.866 400.206 291.774 400.282 290.687 400.306C291.774 400.277 292.87 400.206 293.967 400.13C295.339 400.035 296.715 399.945 298.087 399.945C298.509 399.945 298.932 399.955 299.35 399.974C300.731 400.05 302.117 400.268 303.498 400.486ZM335.722 390.414L335.718 390.409H335.722L335.794 390.333C338.565 387.561 341.47 384.989 344.522 382.63C341.47 385.003 338.561 387.576 335.813 390.329L335.722 390.414ZM363.233 379.858C359.949 379.412 356.678 378.771 353.46 377.95L352.966 377.821H352.962C351.69 378.002 350.47 378.543 349.312 379.226C350.46 378.543 351.661 378.002 352.924 377.807C352.933 377.812 352.947 377.817 352.962 377.821H352.966L353.46 377.95C356.678 378.771 359.949 379.412 363.233 379.858Z" fill="#BBBBBA"/>
<path d="M332.453 401.578C329.648 400.643 326.838 399.712 324.028 398.777C325.912 397.961 327.906 396.888 329.937 395.45C332.011 393.969 333.905 392.227 335.719 390.409L335.723 390.414C337.94 391.762 340.09 393.248 342.145 394.861C339.074 397.372 335.837 399.646 332.453 401.578Z" fill="#CBA39C"/>
<path d="M309.098 401.07C307.926 401.07 306.754 400.966 305.581 400.79C305.439 400.771 305.296 400.752 305.154 400.733C304.603 400.657 304.048 400.572 303.498 400.486C302.116 400.268 300.73 400.05 299.349 399.974C298.931 399.955 298.509 399.945 298.087 399.945C296.715 399.945 295.338 400.035 293.966 400.13C292.87 400.206 291.774 400.277 290.687 400.306C290.435 400.311 290.183 400.315 289.937 400.315C289.215 400.315 288.494 400.287 287.772 400.22C286.633 400.121 285.508 399.912 284.383 399.656C283.913 399.546 283.439 399.428 282.969 399.309C282.945 398.084 282.693 396.855 282.262 395.735C281.45 393.632 280.102 391.833 278.602 390.167C278.085 389.593 277.543 389.023 277.002 388.468C276.447 387.898 275.892 387.334 275.317 386.778C276.139 387.414 276.969 388.003 277.819 388.553C281.616 391.031 285.693 392.688 290.492 393.675C292.101 394.002 294.261 394.387 296.288 394.387C297.792 394.387 299.221 394.178 300.298 393.58C302.733 392.237 304.874 391.083 306.668 388.886C308.391 386.783 310.646 385.183 313.124 384.253C314.742 383.636 316.46 383.304 318.183 383.299C317.011 385.098 316.152 387.125 315.653 389.246C315.483 389.982 315.354 390.775 315.601 391.491C316.062 392.835 317.562 393.305 318.948 393.305C319.128 393.305 319.303 393.3 319.479 393.286C322.019 393.063 324.325 392.023 326.556 390.704C329.134 389.189 331.616 387.291 334.236 385.853C337.16 384.248 340.383 383.147 342.922 380.93C344.641 379.43 345.913 377.541 346.905 375.443C348.756 376.583 350.83 377.257 352.923 377.807C351.661 378.002 350.46 378.543 349.311 379.226C348.613 379.639 347.935 380.105 347.284 380.57C346.349 381.239 345.428 381.927 344.522 382.63C341.47 384.989 338.565 387.561 335.793 390.333L335.722 390.409H335.717C333.904 392.227 332.01 393.969 329.936 395.45C327.904 396.888 325.911 397.961 324.026 398.777C324.022 398.773 324.012 398.773 324.003 398.768C322.863 399.252 321.762 399.632 320.704 399.931C319.541 400.258 318.44 400.486 317.405 400.643C315.264 400.989 313.442 401.042 312.098 401.042C311.804 401.042 311.533 401.042 311.287 401.037C311.035 401.037 310.812 401.032 310.617 401.032C310.385 401.032 310.185 401.037 310.029 401.051C309.72 401.065 309.412 401.07 309.098 401.07Z" fill="#F7D6D0"/>
<path d="M364.937 380.005C364.367 380.005 363.798 379.934 363.233 379.858C359.948 379.411 356.678 378.771 353.46 377.95L352.966 377.821H352.961C352.947 377.817 352.933 377.812 352.923 377.807C350.83 377.257 348.756 376.583 346.905 375.443C348.31 372.448 349.131 369.026 349.781 365.727C349.952 366.335 350.18 366.928 350.455 367.493C352.89 372.529 359.26 376.037 366.218 376.041C367.647 376.041 369.1 375.89 370.547 375.576L370.519 376.003C369.394 377.726 368.032 379.426 366.133 379.872C365.739 379.967 365.34 380.005 364.937 380.005Z" fill="#F7D6D0"/>
<path d="M370.521 376.004L370.549 375.576L370.839 375.515L370.521 376.004Z" fill="#292928"/>
<path d="M289.088 426.844C285.158 427.641 281.242 426.981 277.426 425.619C273.918 424.371 270.496 422.529 267.24 420.683C265.697 419.809 264.121 418.903 262.939 417.536C261.757 416.164 261.012 414.223 261.463 412.433C261.615 411.807 261.904 411.194 262.189 410.592C262.659 409.566 263.096 408.56 262.773 407.525C262.574 406.884 262.109 406.381 261.648 405.926C260.632 404.924 259.569 403.87 258.492 402.788C257.761 402.052 257.025 401.307 256.304 400.548C254.899 399.081 253.536 397.591 252.331 396.134C250.821 394.311 249.62 392.308 249.255 390.276C249.108 389.517 249.089 388.757 249.212 387.998C249.35 387.096 249.692 386.199 250.285 385.321C250.817 384.528 251.491 383.883 252.236 383.323C252.943 382.786 253.717 382.335 254.486 381.913C256.085 381.04 257.742 380.252 259.512 379.9C262.802 379.26 266.229 380.199 269.167 381.899C269.917 382.331 270.633 382.805 271.326 383.323C272.736 384.362 274.051 385.539 275.318 386.778C275.893 387.333 276.448 387.898 277.003 388.468C277.544 389.023 278.085 389.593 278.603 390.167C280.103 391.833 281.451 393.632 282.262 395.735C282.699 396.86 282.951 398.084 282.97 399.309C283.012 401.189 282.519 403.049 281.337 404.43C280.639 405.247 279.747 405.854 278.859 406.438L278.712 406.538C276.405 408.047 274.013 409.481 272.062 411.47C271.184 412.371 270.353 413.772 270.994 414.868C271.25 415.314 271.697 415.59 272.124 415.851C273.306 416.567 274.483 417.279 275.665 417.996C277.326 418.998 279.011 420.013 280.862 420.526C282.766 421.048 284.816 421.024 286.62 421.869C288.414 422.724 289.914 424.95 289.088 426.844Z" fill="#F7D6D0"/>
<path d="M256.322 400.572C255.904 400.135 255.491 399.698 255.088 399.257C255.487 399.689 255.895 400.116 256.303 400.548C256.308 400.548 256.308 400.553 256.313 400.553C256.317 400.562 256.317 400.567 256.322 400.572Z" fill="#BBBBBA"/>
<path d="M258.496 402.793C257.77 402.067 257.039 401.322 256.322 400.572C256.318 400.567 256.318 400.562 256.313 400.553C257.03 401.312 257.761 402.057 258.492 402.788H258.496V402.793Z" fill="#292928"/>
<path d="M249.242 390.205C248.886 389.441 248.705 388.606 248.601 387.737C248.492 386.954 248.444 386.166 248.444 385.387C248.449 382.601 249.109 379.872 250.267 377.323L250.675 376.507C251.416 377.432 252.156 378.396 252.825 379.397L252.935 379.544C252.716 380.399 252.526 381.362 252.341 382.587L252.232 383.327C251.487 383.887 250.813 384.533 250.286 385.321C249.693 386.199 249.351 387.096 249.213 387.998C249.09 388.734 249.109 389.469 249.242 390.205Z" fill="#F7D6D0"/>
<path d="M252.933 379.544L252.823 379.397C252.154 378.396 251.414 377.432 250.673 376.507C248.931 374.466 247.042 372.686 244.778 371.352C243.554 370.611 242.258 370.018 241.033 369.24C238.551 367.645 236.51 365.385 234.507 363.159C230.985 359.082 227.463 354.853 224.98 350.111C224.349 348.924 223.794 347.738 223.314 346.513C220.348 338.876 220.419 330.313 216.788 322.932C215.639 320.635 214.082 318.409 211.894 317.113C210.152 316.112 208.111 315.741 206.222 315.148C205.705 315.001 205.183 314.778 204.703 314.555C205.429 314.436 206.137 314.374 206.825 314.374C213.959 314.374 219.095 320.531 220.348 326.345C224.202 344.401 226.684 354.597 241.887 366.681C245.077 369.202 249.226 371.352 252.154 373.91C252.824 374.428 253.417 374.988 253.934 375.581C253.64 376.801 253.27 377.95 252.933 379.544Z" fill="#F7D6D0"/>
<path d="M258.496 402.788H258.491C257.76 402.057 257.029 401.312 256.312 400.553C256.308 400.553 256.308 400.548 256.303 400.548C255.895 400.116 255.487 399.689 255.088 399.257C254.12 398.208 253.189 397.154 252.34 396.119C250.821 394.301 249.634 392.298 249.264 390.262C249.254 390.243 249.25 390.224 249.24 390.205C249.107 389.469 249.088 388.734 249.212 387.998C249.349 387.096 249.691 386.199 250.284 385.321C250.811 384.533 251.485 383.888 252.23 383.327V383.403C251.746 386.773 251.637 390.371 252.824 393.485C253.009 393.969 253.232 394.449 253.493 394.895C254.343 396.452 255.567 397.714 256.569 399.157C257.347 400.268 257.978 401.492 258.496 402.788Z" fill="#F7D6D0"/>
<path d="M332.543 363.715L332.348 363.639C332.206 363.572 332.063 363.501 331.916 363.43C332.125 363.529 332.334 363.624 332.543 363.715ZM330.312 362.609C329.918 362.414 329.519 362.234 329.125 362.082C328.973 362.015 328.817 361.954 328.66 361.897C329.225 362.082 329.771 362.338 330.312 362.609ZM343.398 362.011L343.507 361.825C344.732 359.713 346.436 358.005 348.107 356.301C348.301 356.12 348.496 355.935 348.695 355.75C348.501 355.935 348.306 356.125 348.116 356.32C346.422 358 344.737 359.728 343.517 361.816L343.417 362.001C343.408 362.006 343.403 362.006 343.398 362.011ZM349.54 355.052C350.091 354.644 350.727 354.354 351.358 354.15C351.358 354.155 351.358 354.155 351.358 354.155C350.708 354.354 350.096 354.658 349.54 355.052ZM351.885 353.443C352.697 352.309 353.47 351.136 354.287 350.002C353.47 351.136 352.701 352.309 351.885 353.443Z" fill="white"/>
<path d="M256.532 373.023C256.422 372.353 256.346 371.651 256.27 370.982C256.199 370.426 256.085 369.871 256.047 369.311L256.422 368.941C256.94 368.461 257.495 368.015 258.012 367.607C258.644 367.127 259.275 366.681 259.944 366.273C266.95 361.788 275.29 360.378 283.411 359.082C287.004 358.489 290.564 357.895 294.124 357.34C297.205 356.851 300.347 356.353 303.442 356.353C305.525 356.353 307.585 356.576 309.584 357.188C314.121 358.517 318.251 361.75 322.926 361.75C322.955 361.75 322.978 361.75 323.007 361.75C324.17 361.75 325.318 361.56 326.458 361.56C326.913 361.56 327.369 361.593 327.825 361.674C328.109 361.731 328.385 361.807 328.66 361.897C328.817 361.954 328.973 362.015 329.125 362.082C329.519 362.234 329.918 362.414 330.312 362.609C330.848 362.879 331.38 363.164 331.916 363.43C332.063 363.501 332.206 363.572 332.348 363.639L332.543 363.715C332.794 363.824 333.051 363.924 333.312 364.014C334.095 364.251 334.878 364.356 335.666 364.356C338.262 364.356 340.863 363.207 343.398 362.011C343.403 362.006 343.407 362.006 343.417 362.001L343.412 362.011C342.658 363.359 342.112 364.868 341.95 366.411C341.95 366.415 341.95 366.42 341.95 366.42L340.688 366.942C339.952 367.17 339.207 367.265 338.457 367.265C335.922 367.265 333.326 366.202 330.753 365.718C329.761 365.528 328.755 365.438 327.749 365.438C322.442 365.438 317.14 367.996 313.775 372.391C314.254 370.906 315.332 369.757 316.11 368.423C316.889 367.127 317.368 365.385 316.59 364.085C316.295 363.568 315.811 363.197 315.37 362.86C311.9 360.359 307.856 359.495 303.65 359.495C299.269 359.495 294.713 360.43 290.455 361.417C279.258 364.047 267.021 361.527 256.532 373.023Z" fill="#F7D6D0"/>
<path d="M341.951 366.42C341.951 366.42 341.951 366.415 341.951 366.411C342.112 364.868 342.658 363.359 343.413 362.011L343.417 362.001L343.517 361.816C344.737 359.728 346.422 358 348.116 356.32C348.306 356.125 348.501 355.935 348.695 355.75C348.914 355.555 349.132 355.361 349.365 355.19C349.422 355.142 349.483 355.095 349.54 355.052C350.096 354.658 350.708 354.355 351.358 354.155C350.703 355.019 350.015 355.84 349.246 356.595C349.36 357.074 349.92 357.217 350.39 357.255L350.732 357.274C349.844 358.641 348.919 359.936 347.917 361.118C346.028 363.454 343.992 365.385 341.951 366.42Z" fill="#F7D6D0"/>
<path d="M256.532 373.023C256.271 372.244 255.606 371.537 254.605 370.797C247.746 365.642 225.651 359.229 225.02 327.94C225.281 328.681 225.537 329.421 225.76 330.161C227.317 335.24 228.466 340.509 230.616 345.403C231.802 348.032 233.288 350.553 235.03 352.855C239.031 358.228 244.371 362.528 250.414 365.162C251.638 365.718 253.01 366.235 254.121 367.014C254.899 367.607 255.606 368.276 256.014 369.164L256.048 369.311C256.086 369.871 256.2 370.426 256.271 370.982C256.347 371.651 256.423 372.353 256.532 373.023Z" fill="#F7D6D0"/>
<path d="M350.732 357.274L350.39 357.255C349.92 357.217 349.36 357.074 349.246 356.595C350.015 355.84 350.703 355.019 351.358 354.155C351.358 354.155 351.358 354.155 351.358 354.15C351.363 354.15 351.363 354.15 351.368 354.15C351.543 353.918 351.714 353.681 351.885 353.443C352.701 352.309 353.47 351.136 354.287 350.002C354.799 349.299 355.326 348.611 355.891 347.961C355.075 349.774 354.035 351.815 352.849 353.889C352.184 355.005 351.477 356.153 350.736 357.264C350.736 357.269 350.732 357.274 350.732 357.274Z" fill="#F7D6D0"/>
<path d="M310.045 402.437C315.74 402.38 321.137 399.978 326.544 395.099C333.16 389.128 331.85 382.658 330.692 376.953C330.009 373.568 328.395 370.327 327.218 367.963C326.686 366.89 326.221 365.969 325.965 365.257C324.398 360.895 320.985 359.215 317.976 357.724C316.03 356.761 314.188 355.85 313.063 354.316L310.818 355.963C312.347 358.042 314.582 359.148 316.747 360.216C319.528 361.593 322.158 362.893 323.349 366.202C323.634 366.985 324.137 368.01 324.73 369.202C325.898 371.556 327.355 374.48 327.968 377.503C329.126 383.204 330.118 388.126 324.683 393.034C319.804 397.444 315.005 399.608 310.016 399.655L310.045 402.437Z" fill="#F1813C"/>
<path d="M318.299 367.536L319.671 369.942C323.601 367.683 327.602 365.827 331.461 364.047L332.349 363.639C331.271 363.121 330.198 362.49 329.121 362.082C325.566 363.715 321.892 365.457 318.299 367.536Z" fill="#F1813C"/>
<path d="M310.125 404.416L310.604 401.678C309.289 401.45 307.799 401.189 306.831 400.391C305.914 399.632 305.321 398.293 305.022 396.3C304.543 393.167 304.771 389.92 305.668 386.897C307.823 379.658 313.822 372.89 321.725 368.789L320.444 366.321C311.757 370.83 305.407 378.04 303.005 386.104C301.989 389.512 301.733 393.186 302.269 396.713C302.677 399.413 303.593 401.322 305.06 402.532C306.603 403.804 308.554 404.146 310.125 404.416Z" fill="#F1813C"/>
<path d="M327.35 389.232C327.137 389.759 326.871 390.248 326.558 390.703C324.702 393.485 321.37 395.104 319.219 397.762C318.503 398.64 317.924 399.627 317.416 400.657C317.164 401.16 316.927 401.668 316.704 402.185C315.859 404.112 315.104 406.087 314.454 408.104C314.274 408.66 314.103 409.215 313.941 409.77C313.291 412.015 312.726 414.365 311.407 416.254C310.405 417.683 309.024 418.76 307.633 419.752C303.945 422.387 299.996 424.617 295.876 426.388C294.879 426.815 293.683 427.204 292.786 426.568C291.946 425.966 291.789 424.67 292.15 423.668C292.52 422.671 293.289 421.912 294.044 421.195C296.446 418.95 298.971 416.852 301.605 414.911C302.497 414.256 303.423 413.596 304.021 412.642C304.709 411.546 304.885 410.198 304.975 408.868L305.018 408.142C305.155 405.684 305.341 403.234 305.568 400.79C305.72 399.138 305.891 397.486 306.081 395.839C306.233 394.51 306.404 393.167 306.912 391.938C307.481 390.58 308.43 389.436 309.385 388.344C310.604 386.949 311.843 385.587 313.125 384.253C313.728 383.617 314.345 382.986 314.966 382.369C315.925 381.405 316.927 380.441 318.128 379.829C320.615 378.562 323.824 379.108 325.812 381.139C327.811 383.171 328.447 386.546 327.35 389.232Z" fill="#F7D6D0"/>
<ellipse cx="272" cy="374" rx="3" ry="4" fill="#333333"/>
<ellipse cx="342" cy="374" rx="3" ry="4" fill="#333333"/>
<ellipse cx="312" cy="394" rx="3" ry="4" fill="#333333"/>
</svg>
