<svg width="740" height="834" viewBox="0 0 740 834" fill="none" xmlns="http://www.w3.org/2000/svg">
<path d="M666.65 238.485C670.183 246.95 677.827 253.146 681.492 261.55C687.284 274.843 681.745 290.587 672.917 302.089C664.098 313.591 652.252 322.429 642.917 333.526C623.103 282.143 606.276 229.616 592.537 176.289C590.299 167.582 588.122 158.561 589.499 149.672C592.02 133.472 607.724 120.421 624.106 120.897C627.669 120.998 631.517 121.839 633.815 124.572C635.83 126.982 636.215 130.303 636.822 133.381C641.358 156.242 662.417 173.647 665.03 196.812C666.589 210.734 661.253 225.556 666.65 238.485Z" fill="#362A2B"/>
<path d="M402.415 416.912L357.066 499.459L217.517 574.807L425.793 548.068L480.425 457.127C472.103 457.036 414.959 436.139 402.415 416.912Z" fill="#FFCFA1"/>
<path d="M515.085 287.073L515.874 287.417C537.653 296.945 547.585 322.327 538.068 344.106L470.607 483.431C440 480.718 411.367 460.944 388.435 442.659L435.221 340.825C451.491 297.38 493.306 277.546 515.085 287.073Z" fill="#EDEDED"/>
<path d="M385.953 833.513H729.92C711.806 670.728 689.735 646.419 677.423 623.122C676.714 621.796 676.006 620.479 675.388 619.153C674.781 617.725 674.173 616.409 673.657 615.083C698.381 540.717 727.176 448.137 736.936 377.223C738.769 364.608 735.721 356.883 731.448 350.373C723.511 338.365 711.503 331.045 719.44 305.713C695.941 287.701 633.067 265.112 626.962 262.774C626.86 262.774 586.979 264.303 533.976 272.544C505.9 282.618 476.195 289.23 463.478 297.36C461.038 317.103 460.117 340.096 460.319 364.912C460.522 387.399 455.439 409.683 444.96 429.416C438.652 441.424 434.582 454.242 435.291 468.589C435.392 469.814 435.503 471.13 435.503 472.355C438.045 503.681 451.976 520.974 473.137 527.798C475.688 547.025 478.533 566.252 481.581 584.77C483.717 597.992 485.955 610.912 488.304 623.426C487.079 626.787 398.872 790.888 385.953 833.513Z" fill="#A4CB39"/>
<path d="M676.372 621.138C676.027 620.48 675.693 619.822 675.39 619.154C675.714 619.792 676.027 620.45 676.372 621.138Z" fill="#D2D2D1"/>
<path d="M729.921 833.513H626.051C651.991 764.23 660.739 677.147 622.892 622.413C583.629 607.661 531.031 594.631 481.582 584.77C480.326 577.105 479.091 569.319 477.907 561.452C483.435 562.202 489.024 562.961 494.653 563.71C495.807 564.368 496.992 564.986 498.207 565.553C497.721 565.037 497.255 564.52 496.799 563.994C528.561 568.195 561.395 572.053 589.521 572.053C620.736 572.053 646.159 567.304 657.914 553.049L690.738 487.026C700.812 455.983 656.577 459.051 636.47 446.922C635.903 446.588 635.194 446.436 634.374 446.436C631.306 446.436 626.73 448.572 622.163 450.708C617.607 452.855 613.051 454.991 610.034 454.991C609.163 454.991 608.414 454.809 607.827 454.394L587.041 511.538L481.693 517.744C479.324 516.995 476.955 516.155 474.555 515.213C464.016 511.052 453.8 506.576 443.392 502.749C439.2 494.599 436.486 484.535 435.504 472.355C448.039 493.637 465.97 503.671 482.635 503.671C497.761 503.671 511.855 495.409 519.945 479.776C524.45 500.856 540.963 510.647 558.206 510.647C566.255 510.647 574.476 508.51 581.695 504.4L636.53 387.297L731.449 350.373C734.851 355.556 737.484 361.52 737.484 370.116C737.484 372.303 737.312 374.662 736.937 377.223C727.177 448.137 698.382 540.717 673.658 615.083C674.174 616.409 674.782 617.725 675.389 619.153C675.693 619.821 676.027 620.479 676.371 621.137C676.695 621.775 677.039 622.444 677.424 623.122C689.736 646.419 711.808 670.728 729.921 833.513Z" fill="#8BB90C"/>
<path d="M465.646 172.827C459.116 137.988 429.228 111.511 420.43 77.1684C416.278 96.1522 420.521 115.966 426.707 134.383C432.883 152.8 441.043 170.63 445.083 189.634C449.113 208.638 448.566 229.596 438.249 246.059C459.723 229.059 470.688 199.748 465.646 172.827Z" fill="#362A2B"/>
<path d="M523.184 0.03786C493.914 0.787088 464.309 9.3829 441.366 27.5669C418.424 45.7508 402.882 74.1204 403.49 103.391C403.905 123.205 411.347 142.077 416.277 161.264C421.198 180.45 423.395 201.793 414.019 219.248C433.732 212.788 450.843 198.735 461.018 180.653C483.07 141.48 471.923 88.7101 498.237 52.2612C513.302 31.3941 538.067 19.9228 562.518 11.9344C552.819 1.67806 537.298 -0.316505 523.184 0.03786Z" fill="#362A2B"/>
<path d="M518.21 279.207L519.111 234.314C550.245 166.6 564.247 161.7 608.077 154.47L627 262.825L550.68 389.667L518.21 279.207Z" fill="#F2C194"/>
<path d="M618.013 122.294C621.759 98.4297 642.069 111.521 637.239 87.5456C608.617 -20.1306 533.664 2.76135 493.458 12.1064C390.004 41.3263 427.04 137.663 439.15 160.17C441.549 166.569 439.635 183.71 435.474 194.867C431.971 204.253 434.715 207.483 441.954 210.693C447.432 213.112 453.152 211.3 454.995 215.593C460.573 228.532 466.334 239.983 473.3 247.658C486.736 262.43 500.981 266.014 520.562 259.433C520.562 259.433 567.399 247.972 567.754 175.884C584.429 169.88 615.269 139.809 618.013 122.294Z" fill="#FFCFA1"/>
<path d="M491.472 19.984C490.743 17.0175 490.267 13.565 492.161 11.1655C493.679 9.24177 496.251 8.58384 498.641 8.04723C526.636 1.73954 556.766 -4.41647 583.263 6.58908C602.388 14.5268 617.12 30.6353 627.802 48.3737C653.964 91.8391 659.715 191.385 640.164 238.192C611.541 198.169 582.575 165.446 561.981 141.693C541.377 117.941 525.552 90.4826 510.335 62.9737C502.731 49.2345 495.168 35.242 491.472 19.984Z" fill="#362A2B"/>
<path d="M590.035 133.774C593.923 150.784 584.061 173.706 572.934 176.247C561.817 178.789 559.894 164.715 555.824 147.746C553.141 136.518 546.64 121.179 558.031 114.831C567.993 109.283 584.335 108.827 590.035 133.774Z" fill="#FFCFA1"/>
<path d="M398.721 85.9057C390.176 121.352 413.159 158.449 405.809 194.159C419.548 180.754 422.12 159.624 420.925 140.468C419.73 121.322 415.609 101.994 419.112 83.1214C424.205 55.6734 444.596 33.6623 466.284 16.0858C451.977 24.6209 437.56 33.237 425.228 44.4248C412.886 55.6228 402.619 69.7163 398.721 85.9057Z" fill="#362A2B"/>
<path d="M426.735 50.5603C420.954 60.0876 420.255 69.0176 422.422 80.1852C428.335 110.559 451.095 137.116 479.606 146.887C498.367 153.316 520.723 153.923 533.743 169.374C522.454 148.496 506.994 130.353 493.548 110.843C486.987 101.315 480.71 90.9477 479.596 79.3954C478.695 70.0807 481.297 60.7354 485.661 52.6458C494.662 36.0008 511.155 8.41096 529.764 8.32996C501.719 -0.397535 469.947 15.063 445.719 30.9892C438.581 35.6769 431.241 43.1389 426.735 50.5603Z" fill="#362A2B"/>
<path d="M567.862 71.984C568.348 61.0797 562.627 50.8235 555.641 42.4503C544.808 29.4401 529.985 19.1532 513.28 16.4195C496.564 13.6757 478.056 19.4368 467.86 32.9634C455.022 50.0134 458.059 75.0112 469.237 93.1851C480.415 111.369 498.163 124.339 515.264 137.106C532.354 149.873 549.769 163.501 559.772 182.343C557.747 161.972 542.105 143.454 545.425 123.245C548.493 104.656 567.021 90.8058 567.862 71.984Z" fill="#362A2B"/>
<path d="M166.754 409.238L132.147 415.677L123.035 366.704C130.872 353.299 137.27 334.254 149.511 330.316C151.445 331.399 165.356 348.996 165.063 398.81C165.012 401.128 164.982 403.548 164.87 406.089L165.376 407.243L166.754 409.238Z" fill="#AB673A"/>
<path d="M146.131 339.631C150.687 359.981 155.213 381.395 149.31 401.391C145.685 393.656 142.668 385.647 140.269 377.446C140.289 381.142 139.6 384.847 138.254 388.3C136.765 383.825 135.277 379.34 133.789 374.864C132.675 377.628 131.551 380.393 130.437 383.167C129.577 379.826 128.716 376.484 127.846 373.143L127.481 370.602C127.572 369.549 128.068 368.587 128.564 367.656C132.219 360.73 135.874 353.795 139.529 346.87C141.109 343.883 142.709 340.866 144.855 338.264L146.131 339.631Z" fill="#382515"/>
<path d="M210.241 665.899C207.315 672.419 201.777 683.121 196.907 692.426C193.657 698.541 190.7 704.039 188.949 707.329C186.974 715.115 182.236 725.22 170.927 725.22L147.356 726.161C128.15 726.161 131.076 715.854 137.282 709.081C143.499 702.267 157.795 701.254 161.49 695.139L161.926 695.21L168.972 683.901L171.868 679.233C175.695 670.637 178.004 659.824 175.857 650.287L169.621 631.192C163.87 611.084 203.022 594.631 209.097 624.135L210.241 665.899Z" fill="#382515"/>
<path d="M438.824 698.299L438.794 698.633L438.652 699.544C438.52 700.314 438.358 701.387 438.085 702.662C436.445 710.762 431.575 727.306 419.182 727.306L400.451 728.116C383.331 728.116 385.912 716.999 391.45 709.679C395.683 704.07 404.177 702.126 409.412 698.542C411.022 697.458 412.297 696.223 413.077 694.674L438.824 698.299Z" fill="#382515"/>
<path d="M443.055 635.89L442.954 638.036L441.142 677.29C441.142 677.29 377.62 660.199 337.536 626.757C320.111 612.218 307.091 594.632 305.643 574.018L330.125 494.822L350.9 495.126L374.835 494.053C383.067 494.053 390.346 494.792 396.826 496.432C410.555 509.189 417.035 546.286 418.615 579.019L419.556 593.548L420.862 613.727L421.53 624.277L443.055 635.89Z" fill="#382515"/>
<path d="M443.057 640.791C442.349 659.187 441.579 677.29 439.696 692.123C439.433 694.37 439.129 696.557 438.795 698.633L438.653 699.544C438.461 700.617 438.289 701.66 438.086 702.662L409.585 717.273L409.413 698.542L409.312 687.354L408.816 634.746L443.057 640.791Z" fill="#382515"/>
<path d="M1.5166 431.361C1.5166 436.018 2.46823 441.526 4.4628 447.034C6.93323 454.628 11.1148 462.322 16.7138 468.488C20.8953 477.702 24.3073 487.199 26.7777 497.08C28.8735 492.139 30.5846 487.108 32.1033 482.076C34.3813 487.199 36.467 492.423 38.1781 497.84C39.4133 494.893 40.5472 491.856 41.59 488.819C43.4934 495.086 44.8198 501.545 45.3969 508.288C48.9102 502.396 51.4718 496.321 53.5575 490.054C55.2685 494.043 56.5039 498.123 57.2633 502.781C60.3007 499.358 62.771 495.653 64.9579 491.755C66.3855 496.321 67.7119 500.968 68.5624 505.818C70.9417 503.155 73.0272 500.31 75.0218 497.556C77.4922 505.626 79.2945 513.796 80.1551 522.342C81.1979 520.539 82.0485 518.636 83.0002 516.834C84.4278 526.422 87.0805 537.63 84.3266 547.036C88.5081 542.469 90.9784 536.395 93.0641 530.32C93.1653 535.261 92.6895 540.192 90.786 544.657C92.406 543.047 93.7324 541.052 94.9677 539.058C95.5346 546.742 96.2939 554.346 97.438 561.949C99.5237 575.233 104.181 587.869 109.689 600.221C115.672 618.354 122.983 636.113 130.485 653.872C129.442 644.749 128.49 635.546 127.731 626.423C130.394 631.749 133.239 637.065 136.094 642.471C134.758 636.204 133.522 629.947 132.389 623.669C140.083 634.027 148.051 644.284 156.505 653.973C154.703 646.177 153.276 638.391 151.858 630.504C153.853 631.557 155.847 632.599 157.842 633.551C166.387 643.99 176.542 653.112 180.724 656.534C178.162 650.166 176.259 643.706 174.548 637.257C177.585 637.156 180.633 636.781 183.67 636.305L193.542 649.508C198.584 657.861 199.809 668.876 198.958 678.181L196.488 688.63L194.969 695.18H194.878C191.173 701.265 176.836 702.308 170.66 709.051C164.484 715.885 161.538 726.142 180.724 726.142L204.375 725.19C217.952 725.19 222.033 710.469 223.268 702.875H223.551C223.551 702.875 223.936 700.789 224.503 697.367C226.305 686.919 230.011 664.32 231.054 653.305L228.776 647.129C233.342 653.588 238.657 659.471 245.208 664.604C243.021 656.818 242.171 649.315 242.171 641.712C245.299 645.225 248.63 648.556 252.518 651.492C251.759 645.326 252.143 639.535 253.095 633.744L254.614 633.642C259.838 640.487 265.437 646.936 271.704 653.021C270.094 646.177 269.143 639.434 268.475 632.6C269.426 632.508 270.469 632.407 271.512 632.316C279.014 645.225 287.56 657.577 299.628 666.315C293.928 655.198 291.549 643.048 290.415 630.706L290.982 630.605C295.73 635.637 300.479 640.669 305.136 645.711C304.751 642.096 304.377 638.492 303.992 634.786C309.308 641.904 315.291 648.455 322.703 654.064C320.9 647.989 320.04 641.904 319.564 635.728C326.884 643.99 334.761 651.594 343.124 659.187C339.034 648.455 335.622 637.915 332.868 627.092L334.761 626.899C344.643 639.819 355.851 651.593 367.717 663.176C363.728 654.347 360.022 645.519 356.61 636.68C367.909 649.032 382.529 662.326 397.919 664.695C390.032 660.615 383.582 653.112 378.257 644.658C388.898 653.021 401.149 661.374 413.298 662.994C408.935 660.513 404.946 656.909 401.24 652.829C409.603 658.529 418.907 662.326 429.255 663.176C426.126 661.09 423.372 658.62 420.902 655.957L450.719 664.32L451.671 669.352L453.665 680.368L457.179 699.362C451.955 702.5 444.452 704.495 440.554 709.709C436.565 714.934 434.196 722.153 439.329 725.858C441.415 727.286 444.736 728.136 449.585 728.136L468.286 727.286C484.718 727.286 487.948 698.319 487.948 698.319L485.953 681.887C488.616 684.549 491.461 687.111 494.6 689.298C490.418 681.978 488.14 673.817 486.055 665.647C488.9 668.876 491.846 672.106 494.691 675.235C491.37 669.069 487.472 662.609 483.675 656.058C483.108 653.871 482.531 651.695 481.964 649.508L480.445 637.723H480.253L479.686 632.883C477.783 631.364 473.419 629.279 468.579 625.573C465.633 623.295 462.403 620.349 459.548 616.552C460.5 616.926 461.543 617.311 462.494 617.686C459.082 611.803 455.751 605.911 452.339 600.028C456.895 602.782 461.644 605.435 466.585 607.723C460.601 600.788 455.468 593.285 451.003 585.499C455.751 589.104 460.692 592.425 465.825 595.462C458.414 587.585 451.863 579.04 446.163 569.918C450.345 573.816 454.81 577.238 459.933 579.607C449.96 571.254 444.543 558.811 439.987 546.935C439.137 544.748 438.276 542.095 437.334 539.341C441.982 544.464 446.923 549.506 452.339 553.87C447.014 545.325 443.024 536.02 439.511 526.614C446.73 535.352 455.093 544.464 464.398 547.886C461.077 544.748 458.505 540.283 456.42 535.443C461.927 543.229 467.82 551.116 475.606 555.966C472.66 550.731 471.039 544.656 469.905 538.389C477.408 549.405 485.953 559.854 498.204 565.554C492.221 559.287 488.616 551.592 485.953 543.522C491.37 548.747 497.07 553.769 503.236 558.142C502.001 555.581 500.867 553.009 499.824 550.448C505.231 555.014 511.022 559.378 517.107 563.276C512.541 556.624 508.562 549.688 505.139 542.469C514.636 552.159 525.369 560.228 537.903 565.746C530.593 558.051 524.984 549.314 520.62 539.817C531.636 549.972 544.079 558.244 556.33 566.789C550.63 558.335 544.646 549.881 539.331 541.052C548.068 550.924 562.405 557.191 572.57 563.65C567.244 556.533 551.48 542.469 550.437 531.261C557.272 540.1 565.918 547.319 575.891 552.635C571.517 545.892 568.105 538.673 566.11 531.079C573.329 535.828 581.875 537.63 590.896 539.908C589.185 538.106 587.575 536.395 585.955 534.876C562.597 511.994 555.753 520.914 543.603 522.058C519.101 524.427 497.637 524.245 474.553 515.214C452.906 506.669 432.677 496.797 409.218 493.952C398.293 492.707 387.571 492.99 376.839 494.134L374.845 494.043L350.91 495.086H350.525V495.177L330.114 494.893L306.554 492.231L225.171 489.011C223.936 488.343 222.792 487.675 221.658 486.824C218.043 484.252 214.814 480.932 211.685 477.327C210.835 475.809 209.974 474.29 209.124 472.771C216.049 475.616 223.085 477.894 230.203 479.038C220.23 473.338 211.209 465.552 203.423 456.622C208.081 459.001 212.819 460.986 218.043 462.039C201.145 451.307 193.45 431.452 185.189 413.126L184.905 411.891C185.472 409.421 185.948 407.052 186.424 404.773C195.83 355.861 185.381 336.006 183.67 334.589C170.376 336.3 160.302 355.385 149.671 367.069C145.399 368.203 141.217 369.246 136.945 369.914C117.282 366.401 99.149 356.145 82.6255 344.177C89.3685 353.583 96.7699 362.321 104.849 370.107C92.6896 368.304 80.8132 364.508 69.2305 358.423C73.5031 362.604 78.0594 366.31 82.8079 369.722C77.9683 368.871 73.1286 367.92 68.2788 366.593C72.4603 370.674 76.9254 374.48 81.4815 377.984C75.9736 378.844 70.5568 379.988 65.1502 381.689C67.7118 383.117 70.0913 384.635 72.4605 386.245L71.8934 386.63L71.7921 386.721C64.9579 386.539 58.0225 385.304 51.0972 382.833C56.028 386.438 61.3536 389.293 66.8615 391.47L61.2523 396.988C52.7071 409.228 35.5154 411.132 22.0293 413.511C14.9116 414.838 8.8367 416.255 5.50568 419.393C2.853 421.672 1.5166 425.944 1.5166 431.361Z" fill="#AB673A"/>
<path d="M93.1276 412.883C85.4733 420.831 75.1865 416.154 77.0697 402.637L88.126 406.393L93.1276 412.883Z" fill="#1D1D1B"/>
<path d="M77.7852 410.888C82.8981 415.859 87.1 417.773 93.5899 412.609C88.0112 418.644 83.526 417.398 77.8865 413.308L77.7852 410.888Z" fill="#382515"/>
<path d="M78.9505 402.373C85.9973 403.598 91.6874 407.81 94.8767 414.219C89.9156 410.058 84.4481 406.565 78.5859 403.831L78.9505 402.373Z" fill="#382515"/>
<path d="M80.7222 408.843C81.1271 410.341 80.9853 411.688 80.4082 411.84C79.821 412.002 79.0211 410.908 78.6161 409.41C78.2112 407.912 78.353 406.565 78.9402 406.403C79.5173 406.251 80.3172 407.344 80.7222 408.843Z" fill="#F6F6F6"/>
<path d="M1.5166 431.361C5.22224 432.211 9.12026 432.019 12.917 431.837C15.0027 431.735 17.1895 431.553 18.6171 430.125C20.1358 428.799 20.4194 426.521 20.7029 424.516C21.1787 420.821 21.5534 417.115 22.0293 413.511C14.9116 414.837 8.8367 416.255 5.50567 419.393C2.853 421.671 1.5166 425.944 1.5166 431.361Z" fill="#1D1D1B"/>
<path d="M180.725 726.141C177.181 726.141 174.387 725.797 172.24 725.179C167.704 723.883 165.993 721.413 165.993 718.588C165.983 715.49 168.029 711.957 170.661 709.051C176.837 702.308 191.174 701.265 194.879 695.18H194.97L196.489 688.629L198.96 678.181C199.121 676.399 199.213 674.556 199.213 672.683C199.202 664.755 197.613 656.261 193.543 649.507L183.671 636.305C180.634 636.781 177.586 637.155 174.549 637.257C176.26 643.706 178.163 650.166 180.725 656.534C176.543 653.112 166.388 643.989 157.843 633.551C155.848 632.599 153.854 631.556 151.859 630.503C153.277 638.39 154.704 646.177 156.506 653.973C148.052 644.283 140.084 634.027 132.39 623.669C133.524 629.946 134.759 636.204 136.095 642.471C133.24 637.064 130.395 631.749 127.732 626.423C128.491 635.545 129.443 644.749 130.486 653.871C122.984 636.113 115.674 618.354 109.69 600.22C104.182 587.868 99.5248 575.233 97.4391 561.949C96.295 554.345 95.5357 546.742 94.9687 539.057C93.7335 541.052 92.407 543.046 90.7871 544.656C92.5387 540.546 93.0854 536.02 93.0854 531.474C93.0854 531.089 93.0753 530.704 93.0651 530.319C90.9795 536.394 88.5092 542.469 84.3276 547.035C85.2085 544.059 85.5324 540.9 85.5324 537.68C85.5324 530.704 83.9732 523.394 83.0013 516.833C82.0495 518.635 81.199 520.539 80.1562 522.341C79.2956 513.796 77.4933 505.625 75.0229 497.556C73.0283 500.31 70.9427 503.155 68.5634 505.818C67.7129 500.968 66.3865 496.321 64.959 491.755C62.772 495.653 60.3017 499.358 57.2643 502.78C56.505 498.123 55.2696 494.043 53.5585 490.054C51.4729 496.321 48.9112 502.396 45.398 508.288C44.8209 501.545 43.4945 495.086 41.5911 488.818C40.5482 491.856 39.4144 494.893 38.1792 497.839C36.4681 492.423 34.3824 487.198 32.1044 482.075C30.5856 487.107 28.8746 492.139 26.7788 497.08C24.3083 487.198 20.8964 477.701 16.7149 468.488C11.1159 462.322 6.93429 454.627 4.46387 447.034C19.0941 458.616 34.19 469.824 51.7563 475.332C58.2564 477.357 65.202 478.451 72.0969 478.451C85.8361 478.451 99.3728 474.117 108.738 464.317C102.471 477.61 99.4336 492.514 100.193 507.336C103.899 503.823 108.546 501.353 113.578 500.209C107.695 543.046 132.288 583.596 155.848 619.781C155.18 615.985 155.747 611.985 157.458 608.482C180.107 622.009 206.502 629.299 232.928 629.299C233.758 629.299 234.598 629.288 235.429 629.278C234.862 621.867 234.284 614.466 233.717 607.146C241.22 613.707 249.866 619.113 259.08 622.91C260.406 611.135 261.733 599.36 262.968 587.585C280.534 595.087 299.346 599.552 318.34 600.504C318.046 591.382 317.864 582.168 317.58 572.955C358.413 609.333 407.984 635.92 460.977 649.69C459.742 668.016 461.361 686.635 465.826 704.495C454.051 706.489 445.496 715.227 439.33 725.858C437.244 724.36 436.394 722.274 436.394 719.975C436.394 716.614 438.196 712.817 440.555 709.709C444.453 704.495 451.956 702.5 457.18 699.361L453.666 680.367L451.672 669.352L450.72 664.32L420.903 655.957C423.373 658.62 426.127 661.09 429.256 663.176C418.908 662.325 409.604 658.529 401.241 652.828C404.947 656.909 408.936 660.513 413.299 662.994C401.15 661.374 388.899 653.021 378.258 644.658C383.583 653.112 390.033 660.614 397.92 664.694C382.53 662.325 367.91 649.032 356.611 636.68C360.023 645.518 363.729 654.347 367.718 663.176C355.852 651.593 344.644 639.818 334.762 626.899L332.869 627.091C335.623 637.915 339.035 648.455 343.125 659.187C334.762 651.593 326.885 643.99 319.565 635.728C320.041 641.904 320.901 647.989 322.704 654.064C315.292 648.454 309.309 641.904 303.993 634.786C304.378 638.492 304.752 642.096 305.137 645.711C300.48 640.669 295.731 635.637 290.983 630.605L290.416 630.706C291.55 643.048 293.929 655.198 299.629 666.315C287.561 657.577 279.015 645.225 271.513 632.316C270.47 632.407 269.427 632.508 268.476 632.599C269.144 639.433 270.096 646.176 271.705 653.021C265.438 646.936 259.839 640.486 254.615 633.642L253.096 633.743C252.489 637.409 252.114 641.074 252.114 644.83C252.114 647.017 252.246 649.234 252.519 651.492C248.631 648.556 245.3 645.225 242.172 641.711C242.172 649.315 243.022 656.818 245.209 664.604C238.658 659.47 233.343 653.588 228.777 647.128L231.055 653.304C230.012 664.32 226.306 686.918 224.504 697.367C223.937 700.789 223.552 702.875 223.552 702.875H223.269C222.034 710.468 217.953 725.19 204.376 725.19L180.725 726.141Z" fill="#805131"/>
<path d="M1.3264 444.563L0 443.52L1.42749 444.178L1.3264 444.563Z" fill="#BBBBBA"/>
<path d="M221.66 508.571C208.549 500.208 197.726 488.251 190.608 474.471L188.897 473.054L187.469 474.471C184.523 480.748 181.678 486.914 178.732 493.192C180.817 482.267 180.817 470.867 178.732 459.942C175.411 468.396 170.379 476.182 164.01 482.733C166.197 473.712 166.957 464.407 166.197 455.194C159.262 461.461 151 466.311 142.171 469.348C148.246 456.338 159.454 446.74 168.192 435.44C175.603 426.035 181.202 415.495 186.426 404.773C185.951 407.051 185.475 409.42 184.908 411.89L185.191 413.125C193.453 431.451 201.148 451.306 218.046 462.038C212.821 460.985 208.083 459 203.426 456.621C211.212 465.551 220.233 473.337 230.206 479.037C223.088 477.893 216.051 475.615 209.126 472.77C209.977 474.289 210.837 475.808 211.687 477.326C214.816 480.931 218.046 484.252 221.66 486.823C220.618 486.823 219.575 486.914 218.522 487.016C219.575 494.133 220.618 501.352 221.66 508.571Z" fill="#805131"/>
<path d="M178.651 343.134C179.4 363.971 179.927 385.85 170.47 404.429C168.324 396.167 166.815 387.733 165.965 379.239C165.296 382.873 163.95 386.387 161.996 389.535C161.358 384.858 160.71 380.18 160.062 375.503C158.462 378.024 156.852 380.535 155.253 383.056C155.01 379.613 154.777 376.171 154.544 372.728L154.645 370.167C154.919 369.154 155.587 368.294 156.245 367.464C161.105 361.328 165.975 355.182 170.835 349.037C172.93 346.394 175.047 343.721 177.649 341.554L178.651 343.134Z" fill="#382515"/>
<path d="M468.582 625.573C465.251 624.905 462.122 622.91 459.368 620.723C453.476 616.167 448.353 610.659 444.262 604.483C438.643 596.1 434.917 586.593 432.011 576.842L445.052 559.003C448.737 566.758 453.334 574.078 459.935 579.606C454.812 577.237 450.347 573.815 446.166 569.917C451.866 579.04 458.416 587.585 465.828 595.462C460.694 592.424 455.754 589.103 451.005 585.499C455.47 593.285 460.603 600.787 466.587 607.723C461.646 605.435 456.898 602.782 452.342 600.028C455.754 605.911 459.085 611.803 462.497 617.686C461.545 617.311 460.502 616.926 459.55 616.551C462.406 620.348 465.635 623.295 468.582 625.573Z" fill="#805131"/>
<path d="M498.205 565.553C496.99 564.986 495.805 564.368 494.651 563.71C495.37 563.812 496.079 563.903 496.797 563.994C497.253 564.52 497.719 565.037 498.205 565.553ZM424.568 521.106L421.257 520.357C421.055 518.261 420.872 516.175 420.71 514.079C426.208 515.517 431.523 517.643 436.495 520.407L424.568 521.106Z" fill="#805131"/>
<path d="M433.752 627.77C416.52 623.092 400.462 614.152 387.401 601.972C388.636 605.242 389.861 608.523 391.086 611.793C379.686 606.609 369.369 599.532 359.994 591.25C360.176 591.23 360.358 591.199 360.54 591.179L363.962 593.295L371.697 592.029L385.001 596.818L393.577 594.702L404.785 599.127C405.261 598.894 405.727 598.661 406.192 598.428C414.221 609.221 423.475 619.103 433.752 627.77ZM341.344 571.902C337.344 567.113 333.558 562.162 329.974 557.099C333.517 559.954 337.122 562.719 340.787 565.412L341.344 571.902Z" fill="#805131"/>
<path d="M587.041 511.538L607.827 454.394C610.409 456.237 616.281 453.473 622.164 450.709C627.945 448.005 633.736 445.292 636.47 446.922C656.577 459.051 700.812 455.983 690.738 487.026L657.914 553.049C628.532 588.688 513.718 564.864 436.568 556.167L424.57 521.106L587.041 511.538Z" fill="#FFCFA1"/>
<path d="M621.991 415.516L611.816 443.45L607.827 454.395C612.93 458.039 618.205 461.624 623.733 464.914C643.83 477.044 673.222 485.994 697.299 487.077L734.892 384.787C747.001 346.617 732.067 310.603 719.411 305.733C678.771 327.036 645.784 362.675 621.991 415.516Z" fill="#EDEDED"/>
<path d="M385.872 589.711C386.571 581.055 380.537 576.397 374.543 572.702C372.882 571.659 371.242 570.727 369.734 569.786C370.898 572.448 371.141 575.496 370.26 578.402L369.602 580.093C370.118 581.804 370.746 580.852 370.615 585.621L370.675 585.54L371.779 584.152C376.537 578.908 381.833 584.456 381.772 589.397C381.701 593.538 385.619 592.718 385.872 589.711Z" fill="#0091A1"/>
<path d="M341.376 556.168L328.204 552.006V551.996L217.369 527.312C237.79 522.189 318.798 537.619 331.707 542.044C334.4 542.975 335.291 545.091 334.694 548.007C334.441 549.202 334.441 549.536 334.238 550.113L342.156 552.887L341.376 556.168Z" fill="white"/>
<path d="M348.915 583.494C345.797 580.224 344.693 575.516 345.989 571.173C347.245 566.86 350.778 563.518 355.182 562.465C359.556 561.412 364.193 562.789 367.312 566.08C368.334 567.173 369.164 568.419 369.731 569.786C370.896 572.448 371.139 575.496 370.258 578.402L369.6 580.093C368.02 583.596 364.882 586.198 361.065 587.109C356.66 588.162 352.023 586.785 348.915 583.494ZM361.976 590.896C365.408 590.065 368.395 588.213 370.612 585.621L370.673 585.54L371.777 584.152C372.708 582.755 373.467 581.186 373.963 579.505C374.642 577.268 374.814 574.939 374.541 572.702C374.085 569.269 372.556 565.999 370.126 563.427C366.066 559.124 360.012 557.332 354.271 558.709C348.53 560.086 343.934 564.419 342.253 570.069C340.572 575.749 342.03 581.874 346.09 586.177C350.16 590.46 356.205 592.273 361.976 590.896Z" fill="white"/>
<path d="M334.449 555.469L336.291 550.305L337.942 549.546L364.226 559.357L353.939 562.82L335.279 557.119L334.449 555.469Z" fill="white"/>
<path d="M342.83 538.966L329.152 540.85V540.86L215.685 547.107C234.942 555.611 318.227 553.171 331.724 551.136C334.012 550.792 335.055 548.676 335.197 546.357C335.267 545.274 334.872 544.332 334.781 543.735L343.043 542.338L342.83 538.966Z" fill="#C6C6C6"/>
<path d="M354.88 513.29C351.256 516.003 349.362 520.448 349.899 524.943C350.435 529.439 353.331 533.296 357.492 535.078C361.654 536.86 366.453 536.283 370.077 533.57C373.702 530.856 375.595 526.422 375.059 521.916C374.512 517.431 371.616 513.563 367.455 511.781C363.294 509.999 358.505 510.576 354.88 513.29ZM368.984 508.217C374.421 510.546 378.208 515.588 378.906 521.461C379.615 527.323 377.134 533.124 372.406 536.668C367.668 540.222 361.411 540.971 355.974 538.642C350.537 536.324 346.75 531.272 346.052 525.409C345.343 519.537 347.823 513.736 352.552 510.192C357.29 506.638 363.547 505.889 368.984 508.217Z" fill="white"/>
<path d="M335.887 538.501L336.839 543.887L338.337 544.919L365.897 539.675L356.339 534.532L336.991 537.002L335.887 538.501Z" fill="white"/>
<path d="M226.558 546.509C255.697 551.652 320.597 549.577 332.382 547.805C333.728 547.592 334.63 546.773 335.176 545.669L335.197 546.357C335.055 548.676 334.012 550.792 331.724 551.136C318.227 553.171 234.942 555.611 215.685 547.107L226.558 546.509Z" fill="#EDEDED"/>
<path d="M327.463 546.59L332.424 547.015C332.08 548.129 330.987 548.909 329.772 548.797C328.557 548.696 327.615 547.755 327.463 546.59Z" fill="#878787"/>
<path d="M327.534 545.578C327.848 544.413 328.962 543.603 330.207 543.705C331.452 543.816 332.414 544.798 332.526 546.003L327.534 545.578Z" fill="#878787"/>
<path d="M338.976 527.768C340.413 529.165 342.428 530.431 344.838 531.302C358.233 536.749 367.011 536.931 379.91 532.983L378.897 541.194L363.903 563.519C362.293 562.577 360.663 562.081 359.012 562.142C358.05 562.142 357.17 562.192 356.36 562.283C354.811 562.466 353.535 562.84 352.583 563.417L348.847 561.261C345.192 559.448 342.185 559.367 340.596 563.174L341.851 577.825L350.963 585.236L352.249 586.036L363.963 593.295L371.699 592.03L385.003 596.819L393.578 594.703L404.786 599.127C414.03 594.611 422.656 590.025 426.149 584.862L445.761 558.031L472.369 556.168L470.465 545.223L463.388 518.858L424.57 521.106L386.045 512.338C365.715 520.347 358.607 524.275 340.585 519.193C335.402 520.529 335.624 524.508 338.976 527.768Z" fill="#FFCFA1"/>
<path d="M342.253 570.069C343.934 564.419 348.53 560.086 354.271 558.709L354.423 558.679L353.917 562.86C350.11 564.207 347.123 567.285 345.989 571.173C344.693 575.516 345.797 580.224 348.915 583.494L350.96 585.236L350.444 589.448C348.844 588.618 347.366 587.524 346.09 586.177C342.03 581.874 340.572 575.749 342.253 570.069Z" fill="white"/>
<path d="M357.574 562.182C357.777 562.162 357.969 562.161 358.162 562.151C357.959 562.161 357.767 562.172 357.574 562.182Z" fill="#8F5834"/>
<path d="M358.273 572.215L352.158 570.149L351.034 564.318C352.857 563.275 354.639 562.617 356.38 562.323L360.572 568.671L358.273 572.215Z" fill="#D2AB86"/>
<path d="M445.76 558.031L449.77 557.747C450.671 557.858 451.572 557.98 452.483 558.091L445.76 558.031Z" fill="#E8E8E8"/>
<path d="M472.599 558.274L452.481 558.092C451.57 557.98 450.669 557.859 449.768 557.747L466.251 556.593L472.599 558.274Z" fill="#E8BD93"/>
<path d="M404.787 599.127L393.579 594.703L385.004 596.819L371.7 592.03L363.964 593.295L360.542 591.179L352.25 586.036C355.156 586.704 357.879 587.129 360.299 587.129C363.448 587.129 366.08 586.411 367.923 584.608L385.378 593.711L395.31 588.608L409.951 589.094C422.08 582.016 432.681 565.827 439.616 549.526L466.254 556.593L449.771 557.748L445.762 558.031L445.053 559.003L432.012 576.843L426.15 584.862C422.657 590.025 414.031 594.611 404.787 599.127Z" fill="#E8BD93"/>
<path d="M360.572 568.672L363.903 563.519C362.111 562.607 360.268 562.152 358.395 562.152C358.314 562.152 358.243 562.152 358.162 562.152C358.436 562.142 358.719 562.142 359.013 562.142C359.104 562.142 359.195 562.131 359.276 562.131C360.845 562.131 362.374 562.628 363.903 563.519L378.898 541.194L379.91 532.983C378.179 533.509 376.518 533.965 374.919 534.339C371.709 535.099 368.712 535.544 365.756 535.666C365.24 535.686 364.713 535.696 364.197 535.696C361.949 535.696 359.711 535.504 357.403 535.109C356.684 534.977 355.965 534.835 355.226 534.673C352.006 533.944 348.604 532.841 344.838 531.302C342.428 530.431 340.414 529.166 338.976 527.768C346.934 529.712 354.689 530.948 362.091 530.948C369.978 530.948 377.47 529.54 384.365 526.098C383.373 533.347 385.742 539.209 391.503 543.644C381.814 544.545 371.243 556.087 360.572 568.672ZM356.38 562.324L356.36 562.283C356.745 562.243 357.15 562.202 357.575 562.182C357.18 562.202 356.785 562.253 356.38 562.324Z" fill="#E8BD93"/>
<path d="M360.572 568.672L356.38 562.324C356.785 562.253 357.18 562.202 357.575 562.182C357.767 562.172 357.96 562.162 358.162 562.152C358.243 562.152 358.314 562.152 358.395 562.152C360.268 562.152 362.111 562.607 363.903 563.519L360.572 568.672Z" fill="#C09D7B"/>
<path d="M352.552 510.192C356.5 507.236 361.502 506.233 366.2 507.316L365.734 511.194C362.018 510.212 358.009 510.951 354.88 513.29C351.256 516.003 349.362 520.448 349.899 524.943C350.435 529.439 353.331 533.296 357.492 535.078C359.163 535.797 360.935 536.111 362.686 536.081L362.211 539.979C360.094 539.938 357.978 539.503 355.974 538.642C350.537 536.324 346.75 531.272 346.052 525.409C345.343 519.537 347.823 513.736 352.552 510.192Z" fill="white"/>
<path d="M70.73 833.544H540.142V776.673C540.142 743.859 513.544 717.272 480.73 717.272H130.132C97.3277 717.272 70.73 743.859 70.73 776.673V833.544Z" fill="#B7CAC0"/>
</svg>
