<svg width="213" height="120" viewBox="0 0 213 120" fill="none" xmlns="http://www.w3.org/2000/svg">
<path d="M66.3547 67.1255C66.3547 76.8381 66.3547 86.6547 66.3547 96.5606C66.0185 96.5817 65.7618 96.6141 65.5036 96.6141C57.9235 96.6174 50.3435 96.6044 42.7634 96.6336C42.0293 96.6369 41.8263 96.3949 41.8295 95.716C41.8328 94.9412 41.7548 94.1649 41.6915 93.3902C41.5502 91.6572 42.398 90.3611 43.4505 89.1007C43.8793 88.5875 44.1765 87.9053 44.3503 87.2524C44.818 85.5031 45.1429 83.7149 45.6123 81.9657C46.0167 80.4568 46.5348 78.9772 47.0204 77.491C47.6051 75.698 48.2044 73.9114 48.8021 72.1231C49.0035 71.5189 48.8444 70.5785 48.427 70.1757C48.6722 69.6105 49.5655 69.0924 48.8119 68.5272C48.7794 67.7914 48.7534 67.2262 48.7274 66.635C48.5943 66.6123 48.4383 66.5863 48.1898 66.5441C48.6803 66.164 48.4529 65.3665 49.4681 65.3389C50.7836 65.3032 51.9189 64.5073 53.0851 63.8593C54.2578 63.208 55.0049 62.2757 55.6952 61.2184C56.0639 60.6532 55.8478 60.0473 55.1803 59.9255C54.7369 59.8443 54.2675 59.9174 53.8176 59.8606C53.4311 59.8102 52.9877 59.768 52.6921 59.5536C51.9466 59.0127 51.9742 58.9754 51.154 59.0517C51.0175 58.2299 50.4669 58.0447 49.6922 58.0951C48.258 58.1909 46.8109 58.0074 45.3962 58.4898C45.0974 58.5921 44.5777 58.3306 44.2821 58.0886C43.6844 57.6013 43.1695 57.0118 42.6221 56.4628C42.1528 55.9934 41.7191 55.4818 41.2091 55.0611C40.6569 54.6063 40.0429 54.223 39.4404 53.8332C38.664 53.3314 38.6656 53.1511 39.2828 52.4705C39.5005 52.2302 39.7181 51.6974 39.5995 51.4912C39.1025 50.6303 39.4046 49.7029 39.2455 48.8226C39.0977 48.0057 39.1334 47.1562 38.9888 46.3376C38.8995 45.8358 38.7485 45.2267 38.4025 44.9116C37.5823 44.1645 36.6484 43.5343 35.7129 42.9317C35.5358 42.818 35.0924 42.9805 34.8472 43.1348C34.1131 43.596 33.6664 43.57 33.262 42.8424C32.3297 41.163 30.8306 41.0249 29.1171 41.0217C27.0154 41.0184 25.7242 42.4055 24.2299 43.471C24.0366 43.609 24.0431 44.0264 23.9603 44.3139C23.9262 44.4357 23.9294 44.577 23.8661 44.6794C23.3642 45.4784 22.7194 46.2191 22.393 47.0815C22.2159 47.5477 22.1705 48.1145 21.9414 48.6034C21.8521 48.795 21.7839 49.0452 21.6264 49.1475C20.4505 49.9043 20.5252 51.4457 19.3249 52.3698C19.8186 52.4624 20.0623 52.5079 20.1435 52.5225C20.4245 53.0553 20.7347 53.4499 20.8403 53.8917C20.9507 54.3497 20.8646 54.8565 20.8646 55.3827C21.1001 55.4152 21.295 55.4428 21.4818 55.4688C21.6264 56.8266 21.6264 56.8266 22.3751 56.8363C22.6155 58.0269 22.5424 59.3538 23.7719 60.3608C23.6663 59.8589 23.5949 59.5211 23.5283 59.206C24.2185 59.5032 24.8601 59.7794 25.5017 60.0555C25.4854 60.1269 25.4692 60.2 25.4529 60.2715C25.9256 60.1416 26.3982 60.0116 26.991 59.8492C27.449 60.5768 27.8388 61.6504 28.5957 62.2855C29.6433 63.1642 29.4403 64.4343 29.999 65.451C30.7023 66.7325 31.2383 68.1731 31.5127 69.6089C31.8717 71.4897 32.0309 73.4176 31.581 75.3569C31.3503 76.346 31.3649 77.405 31.3666 78.4331C31.3682 79.2647 30.6503 80.0995 29.6092 80.3756C29.3217 79.6301 28.9368 78.9187 28.8004 78.1618C28.7224 77.7298 28.9303 77.1321 29.2129 76.7683C30.6341 74.9411 30.6454 73.1821 29.5199 71.3923C28.8393 70.3122 27.6618 70.0409 26.4388 70.9115C26.2407 71.0528 26.304 71.5595 26.2342 71.9705C25.6088 72.1101 24.6051 71.618 24.2608 72.8378C24.3745 72.9141 24.5856 73.0554 24.8504 73.2325C24.7009 73.2909 24.584 73.3819 24.4768 73.3705C22.609 73.1918 21.7758 74.3921 21.0839 75.8425C20.5739 76.9096 19.9843 77.9377 19.4418 78.9902C19.359 79.1493 19.2713 79.3686 19.3168 79.5213C19.614 80.512 18.7954 81.0821 18.4868 81.9137C19.1089 82.4383 19.8446 82.5764 20.6892 82.4318C21.3665 82.3165 22.06 82.2986 22.747 82.2385C22.773 82.3279 22.799 82.4156 22.825 82.5049C21.8911 83.0003 20.9572 83.494 19.8511 84.0787C20.647 84.4409 21.4152 84.7901 22.237 85.1637C22.2078 85.2871 22.151 85.5356 22.0763 85.8556C22.3312 85.7695 22.5229 85.7045 22.8607 85.5892C22.596 87.1419 23.9311 87.1647 24.9007 87.6471C24.3452 88.1554 23.897 88.5663 23.3301 89.0844C23.3301 89.8446 23.3269 90.7882 23.335 91.7335C23.3366 91.8602 23.3659 92.0063 23.4341 92.1087C24.2169 93.2781 25.0209 94.4329 25.7891 95.6104C25.9483 95.854 25.9808 96.1789 26.101 96.5589C17.3548 96.5589 8.76285 96.5589 0.0897206 96.5589C0.0734788 96.2536 0.0458677 95.9661 0.0458677 95.6802C0.0442435 72.102 0.0458676 48.5222 0.03125 24.9439C0.03125 24.3397 0.227776 24.0766 0.776749 23.8232C7.23287 20.8429 13.6711 17.8268 20.1159 14.8204C20.3774 14.6986 20.6421 14.5849 21.0449 14.4062C21.0449 20.8039 21.0449 27.0846 21.0449 33.5716C21.9285 32.9625 22.6252 32.4444 23.3577 31.9864C25.8297 30.4402 28.4447 29.1636 31.3113 28.6016C34.8602 27.9048 38.4447 27.6791 42.0813 28.0315C45.0617 28.3206 47.9559 28.8631 50.7609 29.8879C53.4912 30.8868 55.9323 32.3746 58.1022 34.309C61.6267 37.4485 63.8291 41.4115 65.1268 45.878C65.6303 47.611 65.9226 49.4317 66.0704 51.2329C66.2783 53.7845 66.2637 56.3556 66.3449 58.9169C66.3498 59.0745 66.3758 59.2304 66.392 59.3993C66.6681 57.9733 66.9377 56.57 67.2122 55.1699C67.7661 52.3585 68.8348 49.7371 70.1504 47.2082C71.9191 43.812 74.1881 40.7781 76.9849 38.1713C81.2175 34.2229 86.1421 31.4325 91.6545 29.6719C96.5482 28.1095 101.599 27.7473 106.652 28.1452C113.589 28.6925 119.959 31.0216 125.654 35.1032C130.831 38.8144 134.739 43.5538 137.313 49.3781C138.387 51.8079 139.202 54.3221 139.566 56.9679C139.652 57.5948 139.784 58.2136 140.07 58.8747C140.195 58.2315 140.344 57.5916 140.442 56.9452C141.044 52.9399 142.29 49.1491 144.192 45.571C145.889 42.3763 148.265 39.7272 150.989 37.4144C154.721 34.244 159.043 32.1212 163.747 30.7926C166.247 30.0861 168.78 29.5144 171.392 29.4299C174.009 29.3455 176.643 29.0758 179.242 29.2594C185.082 29.6719 190.598 31.2945 195.691 34.2716C198.919 36.1573 201.754 38.5156 204.163 41.3433C207.122 44.8174 209.234 48.7918 210.541 53.1738C211.254 55.563 211.86 57.9846 211.896 60.4908C211.94 63.5897 212.157 66.7179 211.826 69.7811C211.144 76.0731 208.894 81.8536 205.061 86.9243C200.978 92.3247 195.659 96.0035 189.156 97.9736C185.267 99.1511 181.291 99.476 177.273 99.2794C171.946 99.0196 167.088 97.3288 162.756 94.186C162.082 93.6971 161.423 93.1855 160.606 92.5716C160.606 92.9695 160.606 93.244 160.606 93.5201C160.606 98.8263 160.595 104.132 160.622 109.437C160.625 110.079 160.421 110.384 159.842 110.652C153.386 113.639 146.947 116.657 140.499 119.661C140.247 119.778 139.967 119.84 139.565 119.973C139.565 103.426 139.565 87.0136 139.565 70.6013C138.688 73.9698 137.46 77.1581 135.764 80.1742C133.924 83.4485 131.613 86.3526 128.822 88.8441C124.653 92.5683 119.842 95.2044 114.492 96.8188C112.109 97.5383 109.681 98.1019 107.174 98.188C104.88 98.2659 102.572 98.5372 100.297 98.3634C92.9198 97.7982 86.1875 95.3928 80.2105 90.9425C74.1621 86.4387 70.0172 80.5851 67.7466 73.4306C67.0872 71.363 66.7964 69.1785 66.3547 67.1255ZM87.8702 63.1999C88.0781 64.7104 88.1999 66.2404 88.5085 67.7297C89.2637 71.376 91.1462 74.3661 94.1541 76.562C97.8118 79.2338 101.895 80.0702 106.355 79.1688C109.006 78.6328 111.317 77.4569 113.319 75.6915C116.924 72.5113 118.327 68.3177 118.458 63.6774C118.509 61.9038 118.197 60.0863 117.812 58.342C116.992 54.608 114.892 51.6715 111.721 49.5503C108.059 47.101 104.054 46.3295 99.7365 47.3349C95.9326 48.2217 92.91 50.2568 90.7255 53.5003C88.757 56.4222 87.9384 59.6754 87.8702 63.1999ZM190.38 64.2816C190.458 64.2686 190.536 64.2556 190.613 64.2426C190.314 62.4544 190.161 60.6256 189.687 58.8844C188.579 54.8175 185.992 51.8923 182.232 50.0391C179.126 48.5092 175.826 48.4263 172.466 48.8925C169.612 49.2872 167.166 50.5313 165.058 52.4397C162.383 54.8597 161.027 58.0025 160.655 61.5026C160.403 63.869 160.422 66.2696 161.022 68.6458C162.009 72.5535 164.073 75.6768 167.44 77.8792C171.014 80.2164 174.908 80.7881 179.068 79.8477C182.74 79.0194 185.584 77.0282 187.683 73.9438C189.666 71.0333 190.523 67.7947 190.38 64.2816Z" fill="#A4CB39"/>
<path d="M0.0473072 16.7563C0.0473072 16.2316 0.0489314 15.8451 0.0473072 15.4569C0.0278171 12.7527 -0.025781 10.0484 0.0148235 7.34576C0.057009 4.68807 2.55052 1.48513 4.98806 0.751573C8.58246 -0.329623 12.2387 -0.0598018 15.9107 0.418626C17.5495 0.633018 20.322 1.75154 20.6923 2.0493C21.0626 2.34707 21.0447 2.57716 21.0577 2.86302C21.1081 3.9967 21.0772 5.13362 21.1129 6.26892C21.1324 6.90235 20.6159 6.99331 20.2407 7.17359C18.8391 7.85088 17.4066 8.46482 16.0016 9.1356C10.8335 11.5995 5.67022 14.0764 0.505326 16.5484C0.411124 16.5938 0.313673 16.6361 0.0473072 16.7563Z" fill="white"/>
</svg>
