<svg width="237" height="121" viewBox="0 0 237 121" fill="none" xmlns="http://www.w3.org/2000/svg">
<g clip-path="url(#clip0_9_2)">
<mask id="mask0_9_2" style="mask-type:luminance" maskUnits="userSpaceOnUse" x="0" y="0" width="237" height="121">
<path d="M237 0H0V121H237V0Z" fill="white"/>
</mask>
<g mask="url(#mask0_9_2)">
<path d="M20.9388 112.735C20.9388 113.883 20.7087 115.031 20.2485 115.949C19.7883 116.867 19.0981 117.786 18.4078 118.475C17.4874 119.163 16.567 119.623 15.4165 120.082C14.266 120.541 13.1155 120.541 11.5049 120.541H1.61068H0V90.9224H3.45146H11.5049C14.4961 90.9224 16.567 91.6112 18.1777 92.9888C19.7883 94.3664 20.4786 96.4328 20.4786 98.7288C20.4786 100.336 20.0184 101.714 19.3282 102.862C18.6379 104.01 17.4874 104.928 16.3369 105.617C17.7175 106.306 18.868 107.224 19.5583 108.372C20.4786 109.75 20.9388 111.127 20.9388 112.735ZM3.45146 93.9072V104.239H11.2748C13.1155 104.239 14.4961 103.78 15.6466 102.862C16.7971 101.943 17.2573 100.795 17.2573 99.188C17.2573 97.5808 16.7971 96.4328 15.6466 95.2848C14.4961 94.3664 13.1155 93.9072 11.2748 93.9072H3.45146ZM17.4874 112.275C17.4874 110.668 16.7971 109.52 15.8767 108.602C14.7262 107.683 13.3456 107.224 11.735 107.224H3.45146V117.556H11.735C13.5757 117.556 14.9563 117.097 16.1068 116.179C17.0272 115.031 17.4874 113.883 17.4874 112.275Z" fill="#6D6E71"/>
<path d="M53.6126 120.541C53.6126 120.082 53.3825 119.622 53.3825 119.163C53.3825 118.704 53.3826 118.245 53.1525 117.786C52.4622 118.934 51.7718 119.622 50.6213 120.311C49.4708 121 48.0902 121.23 46.7096 121.23C44.4087 121.23 42.5679 120.541 40.9572 119.163C39.3465 117.786 38.6562 115.719 38.6562 112.734V100.566H42.1077V112.046C42.1077 113.194 42.3379 114.112 42.568 114.801C42.7981 115.49 43.2582 116.178 43.7184 116.638C44.1786 117.097 44.869 117.556 45.3292 117.556C46.0195 117.786 46.7097 117.786 47.3999 117.786C49.0106 117.786 50.3912 117.326 51.5417 116.178C52.6922 115.03 53.1525 113.653 53.1525 111.586V100.336H56.6039V116.638C56.6039 117.326 56.6039 117.786 56.6039 118.474C56.6039 119.163 56.834 119.852 56.834 120.311H53.6126V120.541Z" fill="#6D6E71"/>
<path d="M75.4719 93.218C75.4719 92.5292 75.702 91.8404 76.1622 91.3812C76.6224 90.922 77.3127 90.6924 78.003 90.6924C78.6933 90.6924 79.3836 90.922 79.8438 91.3812C80.304 91.8404 80.5341 92.5292 80.5341 93.218C80.5341 93.9068 80.304 94.5956 79.8438 95.0548C79.3836 95.514 78.6933 95.7436 78.003 95.7436C77.3127 95.7436 76.6224 95.514 76.1622 95.0548C75.702 94.5956 75.4719 93.9068 75.4719 93.218ZM79.8438 100.565V120.541H76.3923V100.565H79.8438Z" fill="#6D6E71"/>
<path d="M98.9417 90.2334H102.393V120.311H98.9417V90.2334Z" fill="#6D6E71"/>
<path d="M137.598 120.541C137.598 119.852 137.368 119.393 137.368 118.704C137.368 118.245 137.368 117.556 137.368 117.097C136.678 118.245 135.757 119.393 134.377 120.082C132.996 120.77 131.616 121 130.005 121C128.624 121 127.244 120.77 126.093 120.311C124.943 119.852 123.792 119.163 123.102 118.245C121.952 117.097 121.491 116.178 121.031 114.801C120.571 113.423 120.341 112.046 120.341 110.438C120.341 108.831 120.571 107.454 121.031 106.076C121.491 104.698 122.182 103.55 123.102 102.632C124.022 101.713 124.943 101.025 126.093 100.565C127.244 100.106 128.624 99.8767 130.005 99.8767C131.616 99.8767 132.996 100.106 134.377 100.795C135.757 101.484 136.678 102.402 137.368 103.55V90.2334H140.819V115.719C140.819 118.015 141.05 119.622 141.28 120.311H137.598V120.541ZM136.908 110.438C136.908 109.29 136.678 108.372 136.448 107.454C136.218 106.535 135.757 105.846 135.067 105.157C134.377 104.469 133.686 104.009 132.996 103.55C132.076 103.091 131.155 103.091 130.235 103.091C129.315 103.091 128.394 103.321 127.474 103.55C126.553 104.009 125.863 104.469 125.403 105.157C124.713 105.846 124.483 106.535 124.022 107.454C123.792 108.372 123.562 109.29 123.562 110.438C123.562 112.734 124.252 114.571 125.403 115.949C126.553 117.326 128.164 118.015 130.235 118.015C132.306 118.015 133.917 117.326 135.067 115.949C136.218 114.571 136.908 112.734 136.908 110.438Z" fill="#6D6E71"/>
<path d="M177.865 112.046H161.758C161.988 114.112 162.679 115.49 163.829 116.638C164.98 117.556 166.59 118.245 168.201 118.245C169.582 118.245 170.962 118.015 171.883 117.327C172.803 116.638 173.723 115.719 174.184 114.571L176.945 115.719C176.254 117.556 174.874 118.934 173.493 119.852C171.883 120.771 170.042 121.23 167.971 121.23C166.59 121.23 165.21 121 164.059 120.541C162.909 120.082 161.758 119.393 161.068 118.475C160.148 117.556 159.457 116.408 158.997 115.26C158.537 113.883 158.307 112.505 158.307 110.898C158.307 109.291 158.537 107.913 158.997 106.535C159.457 105.158 160.148 104.01 161.068 103.091C161.988 102.173 162.909 101.484 164.059 100.795C165.21 100.336 166.59 100.106 168.201 100.106C169.582 100.106 170.962 100.336 172.113 100.795C173.263 101.254 174.414 101.943 175.104 102.862C176.024 103.78 176.715 104.928 177.175 106.306C177.635 107.683 177.865 109.061 177.865 110.668V112.046ZM174.414 109.52C174.414 107.454 173.723 105.617 172.573 104.469C171.422 103.321 170.042 102.862 168.201 102.862C166.36 102.862 164.75 103.55 163.599 104.698C162.449 105.846 161.758 107.454 161.528 109.75H174.414V109.52Z" fill="#6D6E71"/>
<path d="M204.556 100.106C205.247 100.106 205.937 100.106 206.627 100.336V103.55C205.937 103.321 205.247 103.321 204.556 103.321C202.716 103.321 201.565 103.78 200.415 104.928C199.494 106.076 199.034 107.454 199.034 109.291V120.311H195.583V100.336H198.804L199.034 102.862C199.494 101.943 200.184 101.254 201.105 100.795C202.025 100.336 203.176 100.106 204.556 100.106Z" fill="#6D6E71"/>
<path d="M229.407 118.245C230.557 118.245 231.478 118.015 232.398 117.556C233.318 117.097 233.549 116.179 233.549 115.26C233.549 113.883 232.628 112.964 230.787 112.275L227.796 111.357C224.115 110.439 222.504 108.602 222.504 105.846C222.504 104.928 222.734 104.239 222.964 103.55C223.194 102.862 223.654 102.173 224.345 101.714C225.035 101.254 225.725 100.795 226.646 100.566C227.566 100.336 228.486 100.106 229.637 100.106C231.478 100.106 233.088 100.566 234.469 101.484C235.85 102.402 236.54 103.55 236.77 105.158L233.779 105.846C233.779 104.928 233.318 104.239 232.398 103.78C231.708 103.321 230.787 103.091 229.637 103.091C228.486 103.091 227.566 103.321 226.876 104.01C226.185 104.469 225.955 105.387 225.955 106.076C225.955 106.765 226.185 107.454 226.646 107.913C227.106 108.372 227.796 108.831 228.947 109.061L231.938 109.979C233.779 110.439 234.929 111.127 235.85 112.046C236.77 112.964 237.23 114.112 237.23 115.49C237.23 117.327 236.54 118.704 235.159 119.852C233.779 121 231.938 121.459 229.637 121.459C227.566 121.459 225.725 121 224.345 120.082C222.964 119.163 222.274 117.786 222.044 116.408L225.035 115.719C225.265 116.638 225.725 117.327 226.416 117.786C227.106 118.015 228.026 118.245 229.407 118.245Z" fill="#6D6E71"/>
<path d="M0 14.0059H14.266V39.7212H38.4262V14.0059H52.6922V78.7535H38.4262V52.3493L14.266 52.1197V78.7535H0V14.0059Z" fill="url(#paint0_linear_9_2)"/>
<path d="M85.3659 33.522C88.8174 33.522 92.0387 33.9812 94.7999 35.1292C97.5611 36.2772 100.092 37.8844 102.163 39.9508C104.234 42.0172 105.845 44.5428 106.995 47.2981C108.146 50.0533 108.606 53.2677 108.606 56.7117C108.606 60.1558 108.146 63.1406 106.995 66.1254C105.845 68.8806 104.234 71.4062 102.163 73.4726C100.092 75.5391 97.5611 77.1463 94.7999 78.2943C92.0387 79.4423 88.8174 79.9015 85.3659 79.9015C81.9144 79.9015 78.6931 79.4423 75.7018 78.2943C72.9407 77.1463 70.4096 75.5391 68.3387 73.4726C66.2678 71.4062 64.6572 69.1102 63.5067 66.1254C62.3562 63.3702 61.896 60.1558 61.896 56.7117C61.896 53.2677 62.3562 50.0533 63.5067 47.2981C64.6572 44.5428 66.2678 42.0172 68.3387 39.9508C70.4096 37.8844 72.9407 36.2772 75.7018 35.1292C78.463 34.2108 81.6843 33.522 85.3659 33.522ZM85.3659 67.7326C88.3572 67.7326 90.6581 66.8142 92.4989 64.7478C94.1096 62.6814 95.03 60.1558 95.03 56.7117C95.03 53.4973 94.1096 50.7421 92.4989 48.6757C90.8882 46.6093 88.3572 45.6909 85.3659 45.6909C82.3746 45.6909 80.0737 46.6093 78.2329 48.6757C76.3921 50.7421 75.7018 53.2677 75.7018 56.7117C75.7018 59.9261 76.6222 62.6814 78.2329 64.7478C79.8436 66.5846 82.3746 67.7326 85.3659 67.7326Z" fill="url(#paint1_linear_9_2)"/>
<path d="M185.458 51.2014V78.524H172.343V53.2678C172.343 50.5126 171.652 48.4462 170.502 47.2982C169.121 45.9206 167.511 45.2318 165.21 45.2318C162.909 45.2318 161.068 45.9206 159.687 47.2982C158.307 48.6758 157.386 51.2014 157.386 54.6454V78.524H144.041V53.2678C144.041 50.7422 143.351 48.6758 142.2 47.2982C141.05 45.9206 139.209 45.2318 136.908 45.2318C134.607 45.2318 132.766 45.9206 131.385 47.5278C130.005 48.9054 129.085 51.431 129.085 54.875V78.7536H115.509V34.8997H128.164L128.624 38.3437C131.155 35.1293 135.067 33.2925 140.589 33.2925C143.811 33.2925 146.802 33.9813 149.333 35.1293C151.864 36.5069 153.705 38.3437 155.085 41.0989C156.236 38.5733 157.847 36.7365 160.378 35.3589C162.679 33.9813 165.67 33.2925 169.121 33.2925C174.184 33.2925 178.325 34.8997 181.317 37.8845C184.308 40.8693 185.458 45.691 185.458 51.2014Z" fill="url(#paint2_linear_9_2)"/>
<path d="M237 61.304H205.016C205.477 63.8296 206.397 65.4368 208.238 66.5848C210.079 67.7328 212.149 68.192 214.681 68.192C219.052 68.192 222.274 66.3552 223.884 62.9112L235.159 67.2736C233.548 71.1768 231.017 74.1617 227.336 76.2281C223.654 78.5241 219.513 79.4425 214.681 79.4425C211.459 79.4425 208.468 78.9833 205.707 77.8353C202.946 76.6873 200.645 75.0801 198.574 73.0137C196.503 70.9472 195.122 68.4216 193.972 65.6664C192.821 62.9112 192.361 59.6968 192.361 56.2527C192.361 52.8087 192.821 49.5943 193.972 46.8391C195.122 44.0839 196.503 41.5582 198.574 39.4918C200.645 37.4254 202.946 35.8182 205.707 34.6702C208.468 33.5222 211.459 33.063 214.911 33.063C218.132 33.063 221.353 33.5222 223.884 34.6702C226.646 35.8182 228.947 37.4254 230.787 39.4918C232.628 41.5582 234.239 44.0839 235.159 46.8391C236.31 49.5943 236.77 52.8087 236.77 56.4823V61.304H237ZM223.194 52.1199C222.964 49.5943 222.044 47.7575 220.663 46.6095C219.282 45.4615 217.212 44.7727 214.681 44.7727C212.149 44.7727 210.079 45.4615 208.468 46.6095C206.857 47.7575 205.707 49.8239 205.247 52.1199H223.194Z" fill="url(#paint3_linear_9_2)"/>
<path d="M187.069 32.3738C186.609 32.3738 186.148 32.3738 185.688 32.1442L105.384 11.9393L71.7902 27.3226C69.0291 28.7002 65.5776 27.3226 64.4271 24.5674C63.0465 21.8121 64.4271 18.3681 67.1883 17.2201L104.464 0L188.68 21.3529C191.671 22.0417 193.512 25.2562 192.821 28.241C191.901 30.537 189.6 32.3738 187.069 32.3738Z" fill="#0D81ED"/>
<path d="M163.369 0.458984H152.094V20.6639H163.369V0.458984Z" fill="#0D81ED"/>
</g>
</g>
<defs>
<linearGradient id="paint0_linear_9_2" x1="32.7276" y1="44.5043" x2="189.121" y2="-0.334973" gradientUnits="userSpaceOnUse">
<stop stop-color="#00AEEF"/>
<stop offset="0.125" stop-color="#00A3EF"/>
<stop offset="0.4047" stop-color="#0090EF"/>
<stop offset="0.6929" stop-color="#0085EF"/>
<stop offset="1" stop-color="#0081EF"/>
</linearGradient>
<linearGradient id="paint1_linear_9_2" x1="39.9318" y1="69.6321" x2="196.326" y2="24.793" gradientUnits="userSpaceOnUse">
<stop stop-color="#00AEEF"/>
<stop offset="0.125" stop-color="#00A3EF"/>
<stop offset="0.4047" stop-color="#0090EF"/>
<stop offset="0.6929" stop-color="#0085EF"/>
<stop offset="1" stop-color="#0081EF"/>
</linearGradient>
<linearGradient id="paint2_linear_9_2" x1="44.9024" y1="86.968" x2="201.296" y2="42.129" gradientUnits="userSpaceOnUse">
<stop stop-color="#00AEEF"/>
<stop offset="0.125" stop-color="#00A3EF"/>
<stop offset="0.4047" stop-color="#0090EF"/>
<stop offset="0.6929" stop-color="#0085EF"/>
<stop offset="1" stop-color="#0081EF"/>
</linearGradient>
<linearGradient id="paint3_linear_9_2" x1="49.7493" y1="103.875" x2="206.143" y2="59.036" gradientUnits="userSpaceOnUse">
<stop stop-color="#00AEEF"/>
<stop offset="0.125" stop-color="#00A3EF"/>
<stop offset="0.4047" stop-color="#0090EF"/>
<stop offset="0.6929" stop-color="#0085EF"/>
<stop offset="1" stop-color="#0081EF"/>
</linearGradient>
<clipPath id="clip0_9_2">
<rect width="237" height="121" fill="white"/>
</clipPath>
</defs>
</svg>
