<svg width="104" height="101" viewBox="0 0 104 101" fill="none" xmlns="http://www.w3.org/2000/svg">
<path d="M103.153 56.5841C103.153 52.6195 99.9943 49.3986 96.0622 49.2548L87.8767 19.4395C87.2231 17.0711 86.008 12.6653 80.7214 12.6653L61.1495 12.6661V9.66981C61.1495 4.61394 57.0361 0.500732 51.9805 0.500732C46.9238 0.500732 42.8106 4.61413 42.8106 9.66981V12.6623H23.2463C17.9444 12.6623 16.738 17.0711 16.091 19.438L7.89815 49.2533C3.96981 49.4 0.813599 52.6202 0.813599 56.5831C0.813599 60.5446 3.96962 63.7648 7.89815 63.9101L16.0887 93.7235C16.7372 96.0919 17.9442 100.501 23.2461 100.501H80.7224C86.0095 100.501 87.224 96.0934 87.8777 93.725L96.0631 63.9097C99.9953 63.7653 103.154 60.5465 103.154 56.5827L103.153 56.5841ZM46.111 9.67002C46.111 6.43514 48.7439 3.80222 51.9788 3.80222C55.2136 3.80222 57.8466 6.43514 57.8466 9.67002V12.6625H46.1123L46.113 9.67002H46.111ZM19.2725 20.3115C20.1951 16.9394 21.0867 15.9638 23.2436 15.9638H80.7199C82.8724 15.9638 83.7641 16.9394 84.6932 20.313L92.6309 49.2266L11.327 49.2273L19.2725 20.3115ZM84.6926 92.851C83.7634 96.2253 82.8702 97.2023 80.7194 97.2023H23.245C21.0859 97.2023 20.1942 96.2266 19.2717 92.8531L11.3273 63.9395H92.6313L84.6926 92.851ZM95.7917 60.6399H8.16999C5.93493 60.6399 4.11413 58.8205 4.11413 56.5856C4.11413 54.3492 5.93498 52.5297 8.16999 52.5297H95.7917C98.0281 52.5297 99.8506 54.3484 99.8506 56.5856C99.8506 58.8206 98.0282 60.6399 95.7917 60.6399Z" fill="#111941"/>
<path d="M49.6706 45.6333H54.2924C56.3011 45.6333 57.9355 43.9974 57.9355 41.9872L57.9348 23.1993C57.9348 21.1906 56.3003 19.5547 54.2917 19.5547H49.6699C47.6597 19.5547 46.0253 21.1906 46.0253 23.1993V41.9872C46.026 43.9974 47.6597 45.6333 49.6706 45.6333ZM49.3272 23.1997C49.3272 23.0132 49.4857 22.8563 49.6706 22.8563H54.2924C54.4774 22.8563 54.6343 23.0133 54.6343 23.1997V41.9876C54.6343 42.1711 54.4744 42.3324 54.2924 42.3324H49.6706C49.4893 42.3324 49.3272 42.1703 49.3272 41.9876V23.1997Z" fill="#111941"/>
<path d="M29.7404 45.6333H34.3607C36.3709 45.6333 38.0069 43.9974 38.0069 41.9872V23.1993C38.0069 21.1906 36.3709 19.5547 34.3607 19.5547H29.7404C27.7302 19.5547 26.0958 21.1906 26.0958 23.1993V41.9872C26.0958 43.9974 27.7317 45.6333 29.7404 45.6333ZM29.3971 23.1997C29.3971 23.0162 29.5592 22.8563 29.7404 22.8563H34.3607C34.5442 22.8563 34.7056 23.0162 34.7056 23.1997V41.9876C34.7056 42.1711 34.5435 42.3324 34.3607 42.3324H29.7404C29.5592 42.3324 29.3971 42.1703 29.3971 41.9876V23.1997Z" fill="#111941"/>
<path d="M69.5991 45.6333H74.2194C76.2296 45.6333 77.8655 43.9974 77.8655 41.9872V23.1993C77.8655 21.1906 76.2296 19.5547 74.2194 19.5547H69.5991C67.5889 19.5547 65.9545 21.1906 65.9545 23.1993V41.9872C65.9545 43.9974 67.5889 45.6333 69.5991 45.6333ZM69.2557 23.1997C69.2557 23.0162 69.4178 22.8563 69.5991 22.8563H74.2194C74.4029 22.8563 74.5642 23.0162 74.5642 23.1997V41.9876C74.5642 42.1711 74.4021 42.3324 74.2194 42.3324H69.5991C69.4178 42.3324 69.2557 42.1703 69.2557 41.9876V23.1997Z" fill="#111941"/>
<path d="M58.5935 83.1208C57.92 80.0723 55.2045 77.8225 51.9793 77.8225C48.751 77.8225 46.0385 80.0738 45.3686 83.123C43.2346 84.112 41.8226 86.2542 41.8226 88.6688C41.8226 92.0431 44.5661 94.7881 47.9396 94.7881H56.0248C59.399 94.7881 62.1417 92.0431 62.1417 88.6688C62.1425 86.2519 60.7299 84.1089 58.5935 83.1208ZM56.0255 91.486H47.9404C46.3885 91.486 45.1247 90.2215 45.1247 88.6681C45.1247 87.3969 46.0274 86.2481 47.2705 85.9365C47.9772 85.7596 48.482 85.1406 48.5181 84.4148C48.6072 82.5674 50.1289 81.1216 51.9814 81.1216C53.8354 81.1216 55.3585 82.5689 55.4508 84.4163C55.4869 85.1407 55.9938 85.7582 56.6983 85.9351C57.9415 86.2453 58.8442 87.3956 58.8442 88.6666C58.8412 90.2215 57.5788 91.486 56.0255 91.486Z" fill="#111941"/>
<path d="M56.9448 77.3029C59.3021 77.3029 61.1487 74.8962 61.1487 71.8226C61.1487 68.749 59.3013 66.3423 56.9448 66.3423C54.5875 66.3423 52.7408 68.749 52.7408 71.8226C52.7408 74.8962 54.5882 77.3029 56.9448 77.3029ZM56.9448 69.6436C57.1695 69.6436 57.8475 70.4158 57.8475 71.8226C57.8475 73.2286 57.1688 74.0016 56.9448 74.0016C56.72 74.0016 56.0421 73.2294 56.0421 71.8226C56.0421 70.4166 56.7208 69.6436 56.9448 69.6436Z" fill="#111941"/>
<path d="M38.3275 74.5959C35.9702 74.5959 34.1235 77.0055 34.1235 80.0829C34.1235 83.1549 35.9709 85.5617 38.3275 85.5617C40.6848 85.5617 42.5314 83.1549 42.5314 80.0829C42.5307 77.0063 40.6833 74.5959 38.3275 74.5959ZM38.3275 82.2604C38.1027 82.2604 37.4248 81.4881 37.4248 80.0829C37.4248 78.6732 38.1035 77.8972 38.3275 77.8972C38.5522 77.8972 39.2302 78.6732 39.2302 80.0829C39.2295 81.4874 38.5508 82.2604 38.3275 82.2604Z" fill="#111941"/>
<path d="M65.6395 74.5959C63.2822 74.5959 61.4355 77.0055 61.4355 80.0829C61.4355 83.1549 63.2829 85.5617 65.6395 85.5617C67.9968 85.5617 69.8434 83.1549 69.8434 80.0829C69.8434 77.0063 67.996 74.5959 65.6395 74.5959ZM65.6395 82.2604C65.4147 82.2604 64.7368 81.4881 64.7368 80.0829C64.7368 78.6732 65.4155 77.8972 65.6395 77.8972C65.8642 77.8972 66.5422 78.6732 66.5422 80.0829C66.5422 81.4874 65.8635 82.2604 65.6395 82.2604Z" fill="#111941"/>
<path d="M47.0146 77.3029C49.3719 77.3029 51.2186 74.8962 51.2186 71.8226C51.2186 68.749 49.3712 66.3423 47.0146 66.3423C44.6573 66.3423 42.8107 68.749 42.8107 71.8226C42.8099 74.8962 44.6588 77.3029 47.0146 77.3029ZM47.0146 69.6436C47.2394 69.6436 47.9173 70.4158 47.9173 71.8226C47.9173 73.2286 47.2386 74.0016 47.0146 74.0016C46.7899 74.0016 46.1119 73.2294 46.1119 71.8226C46.1112 70.4166 46.7899 69.6436 47.0146 69.6436Z" fill="#111941"/>
</svg>
