<svg width="86" height="101" viewBox="0 0 86 101" fill="none" xmlns="http://www.w3.org/2000/svg">
<path d="M25.3015 36.4323C25.7213 36.5461 26.0012 36.4323 26.1692 36.3185C26.477 36.0909 26.6449 35.6927 26.6729 35.1521C26.7009 34.8961 26.7009 34.6685 26.7009 34.4124C26.7009 34.1279 26.7009 33.8434 26.7289 33.5589C26.7849 32.9046 26.8409 32.2503 26.9248 31.6244C27.0928 29.8321 27.2607 27.9828 27.5126 26.1621C28.1283 22.0653 29.6677 18.1962 31.179 14.4409C31.5429 13.5589 31.8787 12.677 32.2146 11.7951C32.4385 11.1976 32.7184 11.0269 33.3901 11.0269C43.2979 11.0554 53.3456 11.0554 63.0855 11.0554H70.8662C70.6703 11.5106 70.5024 11.9658 70.3344 12.421C69.8586 13.6443 69.3829 14.8107 68.9071 15.9487C66.5561 21.6386 65.3246 27.3285 65.2126 32.9046C65.1007 38.1393 65.1007 43.4878 65.1007 48.6372C65.1007 50.8562 65.1007 53.0753 65.1007 55.3228C65.1007 55.3513 65.1007 55.3797 65.1007 55.4366C65.1007 55.6073 65.0727 55.8065 65.2126 55.9487C65.2686 56.0056 65.3526 56.0909 65.4085 56.1763C65.6604 56.4892 65.9683 56.8306 66.3601 56.8875C66.8639 56.9729 67.3957 55.9772 67.4797 55.8634C67.6196 55.6073 67.5916 55.3228 67.5636 55.0383C67.5636 54.953 67.5356 54.8676 67.5356 54.7823C67.5356 52.99 67.5356 51.1976 67.5356 49.3769C67.5356 45.0525 67.5076 40.6144 67.5636 36.2047C67.5916 33.9003 67.7316 31.4252 68.0394 28.6941C68.5992 23.374 70.4464 18.5092 72.1817 14.4124C72.3776 13.9857 72.5455 13.5305 72.7414 13.0184L72.7974 12.8762L73.2172 13.9572C73.665 15.0952 74.0849 16.1478 74.5047 17.2005C76.6598 22.4921 77.7793 27.9828 77.8353 33.4736C77.8912 38.9074 77.8912 44.4551 77.9192 49.8036C77.9192 52.2218 77.9192 54.64 77.9192 57.0298C77.9192 57.1436 77.9192 57.2289 77.9192 57.3427C77.8912 57.6841 77.8633 58.0255 78.0312 58.31C78.2271 58.7083 78.7029 59.1919 79.1507 59.2488C79.1787 59.2488 79.1787 59.2488 79.2067 59.2488C79.7385 59.2488 80.2423 58.3954 80.2423 58.3669C80.3822 58.1109 80.3822 57.7979 80.3542 57.5134C80.3542 57.4281 80.3542 57.3427 80.3542 57.2858C80.3542 54.7538 80.3542 52.2218 80.3542 49.6898C80.3542 45.0525 80.3542 40.3868 80.3542 35.7496C80.3822 27.9828 79.0667 21.3826 76.4079 15.4935C74.2808 10.8278 73.4971 6.70261 73.9449 2.46363C73.9449 2.40673 73.9449 2.32139 73.9449 2.26449V2.20759C73.9169 0.870461 73.5251 0.472168 72.2656 0.472168C67.2278 0.472168 62.1619 0.472168 57.124 0.472168C48.8396 0.472168 40.5551 0.472168 32.2706 0.472168C31.7108 0.472168 31.291 0.614415 31.0111 0.898911C30.7312 1.18341 30.5913 1.61015 30.6193 2.17914C30.6193 2.83348 30.6193 3.48782 30.6193 4.1137C30.6193 5.08099 30.5913 6.10517 30.6473 7.1009C30.7032 8.49493 30.4513 9.8036 29.8636 11.1976C27.5126 16.6884 25.1896 22.6059 24.6018 29.0639C24.4339 31.0838 24.3219 33.0753 24.2939 35.0383C24.2939 35.5789 24.8257 36.3185 25.3015 36.4323ZM33.1102 8.49493V3.06107H71.426V8.52338H33.1102V8.49493Z" fill="#111941"/>
<path d="M39.7435 78.6799C37.1406 78.623 34.6216 78.623 31.9068 78.623C31.2351 78.623 30.5633 78.623 29.8636 78.623V71.6244C29.8636 64.8819 29.8636 57.8833 29.8636 51.0269C29.8636 49.8605 29.8357 48.6087 29.6397 47.3854C28.8001 41.8947 26.3931 38.2531 22.2229 36.2901C22.0829 36.2332 21.887 35.8349 21.887 35.5504C21.831 33.0469 21.831 30.8562 21.887 28.8363C21.915 27.5846 21.3552 26.7026 20.2637 26.3328C16.8212 25.1095 13.2947 25.1095 9.79614 26.3328C8.7046 26.7026 8.14484 27.5846 8.17282 28.8363C8.20081 30.0881 8.20081 31.3399 8.20081 32.5632C8.20081 33.5305 8.20081 34.5547 8.20081 35.5504C8.20081 36.0341 8.08886 36.2048 7.66904 36.4039C4.95419 37.6557 2.91105 39.7894 1.65158 42.805C0.672 45.1379 0.168213 47.6699 0.168213 50.4011C0.168213 60.1877 0.168213 69.9459 0.168213 79.7325V90.6286C0.168213 93.5305 0.672 94.2702 3.33087 95.3228C3.83466 95.522 4.31046 95.6642 4.75827 95.778C7.92093 96.5746 11.2235 96.9729 14.6661 96.9729C16.8491 96.9729 19.0882 96.8022 21.4392 96.4892C23.6223 96.2047 25.7774 95.4651 27.8485 94.7538L27.9325 94.7254C29.2759 94.2702 29.9476 93.1607 29.9196 91.5106C29.8636 89.2346 29.8636 86.9302 29.8916 84.7112C29.8916 83.7723 29.8916 82.8619 29.8916 81.9231V81.0981H32.1587C34.6776 81.0981 37.1685 81.0981 39.6595 81.0981C40.1913 81.0981 40.6111 80.9558 40.835 80.6713C40.9469 80.5291 41.0869 80.2446 41.0029 79.8178C40.891 79.3057 40.2193 78.6799 39.7435 78.6799ZM11.8393 28.3811C13.7425 27.8691 16.6252 27.8691 18.2206 28.3811C16.1494 28.8079 14.0783 28.8079 11.8393 28.3811ZM10.6358 31.8235C10.6358 31.4537 10.6358 31.0554 10.6358 30.6856C13.6865 31.3399 16.5693 31.3399 19.452 30.6856C19.452 31.0554 19.452 31.4252 19.452 31.7951C19.452 33.3314 19.452 34.7823 19.4241 36.2617C19.4241 36.3755 19.1442 36.6884 18.9203 36.7453C16.3174 37.5134 13.7145 37.5134 11.1396 36.7453C10.9436 36.6884 10.6638 36.347 10.6638 36.2332C10.6078 34.7538 10.6358 33.3314 10.6358 31.8235ZM27.4567 91.3399C27.4567 92.1649 27.2048 92.5632 26.561 92.7339C25.9733 92.8762 25.3855 93.0184 24.7978 93.1607C23.0625 93.5874 21.2433 94.0426 19.452 94.2417C14.1343 94.7823 9.48827 94.4978 5.29004 93.3598C3.86265 92.9615 3.21892 92.7908 2.91105 92.3925C2.60318 91.9942 2.60318 91.283 2.60318 89.8605V79.0782C2.60318 69.5191 2.60318 59.9601 2.60318 50.4011C2.60318 47.2432 3.19093 44.825 4.42241 42.7766C5.03815 41.7524 5.93377 40.7282 7.10927 39.6471C7.753 39.0497 8.39673 38.7652 9.12442 38.7652C9.54424 38.7652 9.96406 38.8506 10.4679 39.0213C13.8264 40.2446 17.3249 40.1308 20.5996 38.6799C20.8235 38.5945 21.2153 38.623 21.4952 38.7652C24.322 40.1023 26.1132 42.5205 26.9529 46.1052C27.2607 47.3854 27.4007 48.7794 27.4007 50.2588C27.4287 55.1521 27.4287 60.1592 27.4287 64.9672C27.4287 66.6173 27.4287 68.2673 27.4287 69.9174V70.2019C27.4287 71.8804 27.4287 73.5305 27.4287 75.209C27.4287 80.4722 27.4287 85.9629 27.4567 91.3399Z" fill="#111941"/>
<path d="M85.1402 65.0526C85.1402 63.5164 84.5525 62.3784 83.4049 61.6672C82.2574 60.9844 80.914 60.2162 79.4866 59.7895C70.6983 57.2575 61.4622 56.9445 51.2186 58.8791C48.7556 59.3343 46.3766 60.3585 44.2495 61.2689C42.6262 61.9517 41.8146 63.4026 41.8425 65.394C41.8985 68.6373 41.8985 71.9374 41.8705 75.1238C41.8705 76.4324 41.8705 77.7411 41.8705 79.0498C41.8705 80.3585 41.8705 81.6387 41.8705 82.9474C41.8705 86.2191 41.8985 89.5761 41.8425 92.9047C41.8146 94.6117 42.4583 95.835 43.7457 96.5462C45.453 97.4566 47.1323 98.3101 48.8956 98.7369C53.5976 99.9033 58.4115 100.501 63.3095 100.501C67.5077 100.501 71.7619 100.074 76.0441 99.2205C78.4231 98.7369 80.7461 97.7127 82.7892 96.8307C84.3286 96.148 85.1682 94.7824 85.1682 92.9901C85.1122 82.8905 85.1122 73.7582 85.1402 65.0526ZM44.3335 74.441C44.3335 72.5064 44.3335 70.6003 44.3335 68.6657V68.0683C52.562 72.5349 74.4208 72.5349 82.7332 68.0683V68.7795C82.7332 70.771 82.7332 72.734 82.7332 74.7255C82.7332 80.5861 82.7332 86.6174 82.7612 92.5918C82.7612 93.8151 82.3414 94.5263 81.4458 94.8393C81.026 94.9815 80.6341 95.1238 80.2143 95.2945C78.3951 95.9488 76.5199 96.66 74.6167 97.0014C66.2202 98.5377 57.9357 98.3955 50.0431 96.5178C48.6437 96.1764 47.2443 95.579 45.9008 94.9815L45.397 94.7539C44.6414 94.4125 44.2775 93.7866 44.2775 92.7909C44.3335 86.6458 44.3335 80.4438 44.3335 74.441ZM82.0615 65.4225C79.8784 66.5036 78.0312 67.2148 76.296 67.67C71.8179 68.808 67.2278 68.9787 62.9176 68.9787C58.8593 68.9218 53.5416 68.6657 48.4198 67.0441C47.2722 66.6743 46.1247 66.1337 44.9772 65.4509C44.5014 65.1664 44.2495 64.8251 44.2775 64.5406C44.2775 64.2561 44.5294 63.9716 44.9772 63.744C46.6565 62.8905 48.4757 62.037 50.323 61.6103C54.829 60.6145 59.3072 60.1309 63.7013 60.1309C68.7671 60.1309 73.6931 60.7852 78.507 62.0939C79.5706 62.3784 80.7181 62.9189 82.0335 63.7155C82.5093 64 82.7612 64.3414 82.7332 64.6544C82.7332 64.9388 82.4813 65.2233 82.0615 65.4225Z" fill="#111941"/>
<path d="M42.5982 46.4749C45.0891 46.4749 47.6641 46.5034 50.183 46.4749C50.7987 46.4749 51.0786 46.5603 51.3305 47.1862C52.0302 48.8647 53.7375 49.8604 55.6127 49.6897C57.4039 49.519 58.9153 48.2104 59.3911 46.418C59.7549 44.9956 59.503 43.6584 58.5794 42.4351C59.3911 41.4109 59.699 40.0738 59.4471 38.7651C59.1952 37.4849 58.4115 36.3754 57.32 35.721C56.2564 35.0951 54.885 35.0098 53.6535 35.465C52.45 35.9202 51.5264 36.859 51.1066 38.0823C51.0786 38.1677 50.7707 38.3668 50.6028 38.3668C48.1399 38.3953 45.6489 38.3953 43.2419 38.3953H41.4787C40.5271 36.6883 39.4076 35.6357 38.1481 35.2658C37.1685 34.9813 36.1329 35.152 35.0974 35.7495C34.0618 36.3469 33.3621 37.2288 33.0822 38.2815C32.7464 39.5333 32.9983 40.9842 33.8099 42.492C33.7819 42.5489 33.726 42.6058 33.698 42.6912C32.9423 43.8576 32.7184 45.1947 33.0263 46.4465C33.3061 47.6129 34.0338 48.5802 35.0974 49.1776C35.7691 49.5759 36.4968 49.7751 37.2245 49.7751C37.6443 49.7751 38.0641 49.7182 38.456 49.5759C39.6594 49.1776 40.611 48.2388 41.1988 46.9586C41.3667 46.5603 41.5626 46.5318 42.0105 46.5318L42.5982 46.4749ZM36.2169 43.5731C36.5528 43.2886 36.9166 42.8903 36.9166 42.4351C36.9166 41.9515 36.5248 41.5816 36.1889 41.2971C35.3213 40.5574 35.0974 39.7893 35.4332 38.9074C35.7691 38.0823 36.5248 37.5987 37.3924 37.684C38.344 37.7694 38.9038 38.3953 39.0717 39.5048C39.2116 40.4436 39.7154 40.8988 40.695 40.8988C44.7813 40.8988 48.1678 40.8704 51.6944 40.8988C52.8978 40.8988 53.2057 40.1307 53.3457 39.3057C53.5416 38.253 54.3252 37.5987 55.3608 37.7125C56.3124 37.7978 57.0401 38.5944 57.264 39.7609C57.152 39.9031 57.0681 40.0738 56.9561 40.216C56.7042 40.6428 56.4523 41.0126 56.1445 41.3256C55.8086 41.667 55.4727 42.0653 55.5007 42.5205C55.5287 42.9756 55.8926 43.3455 56.2004 43.6015C57.0681 44.3412 57.292 45.1094 56.9561 45.9913C56.6203 46.8163 55.8366 47.3 54.9969 47.2146C54.0733 47.1293 53.5136 46.5034 53.3177 45.3939C53.1497 44.455 52.6459 44.0283 51.7223 44.0283C51.7223 44.0283 51.7223 44.0283 51.6944 44.0283C48.1119 44.0567 44.4174 44.0567 40.695 44.0283C40.695 44.0283 40.695 44.0283 40.667 44.0283C39.7434 44.0283 39.2396 44.455 39.0717 45.4223C38.8758 46.5034 38.316 47.1577 37.3924 47.2431C36.5528 47.3284 35.7691 46.8448 35.4332 46.0197C35.0974 45.0809 35.3493 44.3412 36.2169 43.5731Z" fill="#111941"/>
<path d="M25.8893 54.4979C25.8893 53.7866 25.7494 53.3599 25.4415 53.1038C25.1336 52.8478 24.6858 52.7909 24.0141 52.9331C18.1086 54.0996 12.1191 54.0996 6.18564 52.9616C5.65387 52.8478 5.03813 52.7909 4.6463 53.1323C4.25446 53.4737 4.19849 54.0711 4.19849 54.6401C4.19849 57.9118 4.19849 61.155 4.19849 64.4267C4.19849 70.6287 4.19849 76.8023 4.19849 83.0043C4.19849 84.1707 4.6463 84.7397 5.73783 84.9673C8.84452 85.5647 11.9512 85.8492 15.0299 85.8492C18.1086 85.8492 21.1593 85.5647 24.182 84.9673C25.7773 84.6543 25.8893 84.3698 25.8893 82.7767C25.8893 79.3058 25.8893 75.835 25.8893 72.3641V68.8933V65.0242C25.8893 61.4964 25.8893 57.9971 25.8893 54.4979ZM23.3704 55.5789V82.5491C19.3681 83.6017 10.7197 83.6017 6.66144 82.5491V55.6074C12.399 56.5178 17.8567 56.4893 23.3704 55.5789Z" fill="#111941"/>
<path d="M60.0069 85.0525C58.7194 86.475 58.0757 88.2388 58.0477 90.3157C58.0477 91.5105 58.2996 92.3356 58.8314 92.8761C59.3632 93.4166 60.1468 93.6727 61.2944 93.6727C61.3223 93.6727 61.3503 93.6727 61.4063 93.6727C63.5894 93.6442 65.4926 93.6442 67.2558 93.6727C68.4873 93.7011 69.327 93.4451 69.8867 92.8761C70.4465 92.3071 70.6984 91.4821 70.6704 90.2872C70.6704 88.4095 70.0826 86.7595 68.9911 85.3654C67.8716 83.9714 66.2483 83.1179 64.541 83.061C62.8057 83.0041 61.2104 83.7154 60.0069 85.0525ZM60.4827 90.2018C60.5667 87.7836 62.022 85.7922 63.8973 85.5646C65.3246 85.3939 66.3042 86.0767 66.864 86.6741C67.8716 87.7552 68.3754 89.3768 68.1235 90.8562C68.0675 90.9415 67.7596 91.0838 67.5917 91.1691C67.5077 91.1976 67.4517 91.226 67.3678 91.2829L67.3118 91.1691H67.1719C66.6121 91.1691 66.0523 91.1691 65.4926 91.1691C64.9328 91.1691 64.373 91.1691 63.8133 91.1691C63.0296 91.1691 62.218 91.1691 61.4343 91.226C61.0425 91.2545 60.7906 91.1976 60.6506 91.0553C60.5107 90.8846 60.4547 90.6286 60.4827 90.2018Z" fill="#111941"/>
<path d="M68.8511 82.7482C68.8791 82.7482 68.8791 82.7482 68.9071 82.7482C71.1461 82.7198 73.1053 80.5007 73.1333 78.0256C73.1333 76.8023 72.7135 75.7212 71.9578 74.9246C71.2861 74.2418 70.3625 73.8435 69.3829 73.8435C68.3193 73.8435 67.3118 74.2987 66.5001 75.1237C65.6045 76.0341 65.1007 77.3144 65.1007 78.623C65.1007 79.8179 65.5485 80.9274 66.3322 81.6956C67.0039 82.3499 67.8995 82.7482 68.8511 82.7482ZM67.5357 78.5946C67.5357 77.9402 67.7876 77.2859 68.2634 76.8307C68.5992 76.4893 68.9911 76.3186 69.4109 76.3186H69.4389C70.1946 76.3471 70.6983 77.0014 70.6983 77.9402C70.6983 78.5946 70.4185 79.2774 69.9427 79.7326C69.6068 80.074 69.215 80.2447 68.8231 80.2162C68.1234 80.2162 67.5357 79.505 67.5357 78.5946Z" fill="#111941"/>
<path d="M60.5386 82.7482C60.5666 82.7482 60.5666 82.7482 60.5946 82.7482C61.5462 82.7482 62.4418 82.3784 63.1135 81.6956C63.8972 80.899 64.345 79.8179 64.345 78.5946C64.345 77.2859 63.8412 76.0057 62.9456 75.0953C62.1619 74.2703 61.1263 73.8435 60.0628 73.8435C59.0832 73.8435 58.1596 74.2418 57.4879 74.9246C56.7322 75.7212 56.3124 76.8023 56.3124 77.9971C56.3124 80.5576 58.2436 82.7198 60.5386 82.7482ZM60.5946 80.2446C60.2027 80.2731 59.8109 80.074 59.475 79.7326C58.9992 79.2774 58.7194 78.5946 58.7194 77.9402C58.7194 77.0014 59.2511 76.3471 60.0068 76.3186C60.0068 76.3186 60.0068 76.3186 60.0348 76.3186C60.4266 76.3186 60.8465 76.4893 61.1543 76.8307C61.6021 77.2859 61.854 77.9402 61.854 78.5946C61.854 79.5334 61.3223 80.2446 60.5946 80.2446Z" fill="#111941"/>
<path d="M55.7526 89.1777C55.7806 89.1777 55.7806 89.1777 55.8086 89.1777C56.5923 89.1777 57.32 88.8932 57.8518 88.3526C58.4115 87.8121 58.6914 87.0439 58.6914 86.2189C58.6914 85.3085 58.2996 84.4266 57.6279 83.7438C56.9561 83.061 56.0605 82.6912 55.1929 82.6912C54.4092 82.6912 53.6535 83.0041 53.1218 83.5731C52.59 84.1421 52.2821 84.9102 52.3101 85.7068C52.3101 87.4991 53.9334 89.1208 55.7526 89.1777ZM54.7731 85.6215C54.7731 85.5361 54.941 85.337 55.0529 85.1947C55.1089 85.1378 55.1649 85.0525 55.2209 84.9956L55.3888 84.9671C55.4448 85.0525 55.5008 85.1378 55.5567 85.2232C55.7806 85.5646 56.0045 85.8775 56.1725 86.2189C56.0885 86.3611 55.8086 86.5887 55.7247 86.6172C55.1369 86.6456 54.7731 86.2474 54.7731 85.6215Z" fill="#111941"/>
<path d="M70.6984 86.1621C70.6984 86.9587 70.9782 87.7268 71.538 88.2674C72.0978 88.8364 72.8255 89.1493 73.6371 89.1493C74.5327 89.1493 75.4284 88.751 76.1001 88.0682C76.7718 87.3855 77.1356 86.4751 77.1356 85.5931C77.1356 84.7681 76.8278 84 76.268 83.4594C75.7082 82.9189 74.9805 82.6344 74.1689 82.6628C72.3497 82.7197 70.7264 84.3698 70.6984 86.1621ZM74.6447 85.6785C74.6727 86.1052 74.4768 86.4466 73.5532 86.7311C73.5252 86.7027 73.4972 86.6458 73.4692 86.6173C73.3572 86.4751 73.1893 86.2759 73.1893 86.1906C73.2173 85.5931 73.6091 85.1948 74.1969 85.1948C74.3088 85.2233 74.6167 85.5362 74.6447 85.6785Z" fill="#111941"/>
<path d="M76.324 62.9187C75.5123 62.492 74.5887 62.1506 73.6931 61.9799C69.271 61.0979 64.485 60.8988 58.5795 61.354C58.2157 61.3824 57.9358 61.7238 57.6839 62.0368C57.5719 62.1506 57.488 62.2928 57.376 62.3782L57.1521 62.6058L57.404 62.8049C57.488 62.8903 57.5999 62.9756 57.6839 63.061C57.9358 63.2885 58.2157 63.5161 58.5235 63.7437C58.6635 63.8575 58.8594 63.8291 58.9993 63.8006C59.0273 63.8006 59.0833 63.8006 59.1113 63.8006H61.4623C63.9532 63.8006 66.5281 63.8291 69.0751 63.8575C69.5509 63.8575 70.0267 63.9429 70.5025 63.9998C70.6424 64.0282 70.7823 64.0282 70.8943 64.0567C71.4541 64.142 72.1258 64.2274 72.7415 64.3412C73.1333 64.4265 73.5252 64.5119 73.917 64.6257C67.0039 65.8775 59.9509 65.8775 53.0099 64.6257C53.1218 64.5972 53.2618 64.5688 53.3737 64.5688C54.0734 64.455 54.7731 64.3127 55.4448 64.0851C55.8927 63.9429 56.3685 63.317 56.4244 62.8334C56.4524 62.6342 56.3125 62.4066 56.0606 62.1506C55.9206 62.0083 55.5288 61.6954 55.193 61.7523L54.8291 61.8376C53.4017 62.1506 51.9183 62.4635 50.5469 63.0325C49.9032 63.317 49.4834 63.8575 49.4554 64.455C49.4274 65.1093 49.8192 65.7352 50.5189 66.1051C51.5265 66.6456 52.5901 67.0439 53.6536 67.2146C56.7043 67.7551 59.867 68.0396 63.1976 68.0396C65.8564 68.0396 68.5993 67.8689 71.51 67.4991C73.0494 67.2999 74.7007 66.8447 76.296 66.162C77.0517 65.849 77.4995 65.28 77.5275 64.6541C77.5555 63.9713 77.1077 63.317 76.324 62.9187Z" fill="#111941"/>
</svg>
